<svg xmlns="http://www.w3.org/2000/svg" fill="#010d0b" viewBox="0 0 960 82.82" width="100%" height="100%" preserveAspectRatio="none"><title>bottom-curve</title><path d="M960,82.82V71.47q-9.1-2.32-18.18-4.76c-3.71-1-7.42-2-11.14-2.81-2.28-.51-6.4-2.37-8.22-1.13-2.12,1.42-1.16,6.36-4.8,4.81-2.63-1.13-5.06-5.15-6.74-7.41-2.35-3.06-4.8-3.19-8.17-3.89-3-.64-7.75-2.57-10.64-2.42-2.68.26-2.76,4.53-3.47,7-.89,3.09-1.76,6.2-2.62,9.32-.35,0-.9-9.7-1-10.86-.2-1.67-.16-4.68-1.06-6.25-1-1.78-2.63-1.78-4.46-2.19-8.36-1.93-17-1.8-25.4-2.57-2.18-.18-7.27,1-8.76-.23-1-.8-1.37-3-2.54-4a14.23,14.23,0,0,0-5.6-2.32c-3.73-1-7.2-1.75-10.92-3.11-4.21-1.54-4.4-.33-6.14,3.17-2.81-3.6-5.22-7.28-9.7-8.93-2.4-.88-4.92-.59-7.37-1.21-2.29-.57-4.54-1.29-6.87-1.72-5.75-1.13-11.54-2-17.3-2.57-5.16-.51-10.45-.75-15.51-2.57a6.77,6.77,0,0,0-1.54-.46v0l-1-.15h-.17c-7.5-1-15.12-1.21-22.47-2.21-9-1.24-18.4-3.53-27.45-5.15-16.74-2.93-34-3.76-50.92-5.15-4.2-.36-7.4-1.18-10.83.9-3.26,2-6.08,1.24-10.07.9-3.38-.28-6.78-.62-10.16-.75-1.46,0-3.72.39-5.12,0-2.78-.88-1.14-.67-2.22-2.75-.57-1.11.46-1.18-.69-2.11a14.23,14.23,0,0,0-5.31-.57c-3.53-.28-7.08-.59-10.6-.57s-6.34-.44-8.57,2c-2.57,2.83-4.42,7.44-6.64,10.66-2,2.83-2.63,4.35-4.14.46a42.15,42.15,0,0,1-2-10.3c-.39-3.37.06-3.55-2.85-4.63-4-1.49-10.21-.8-14.48-1.13C550.32,2.5,534.23,2,518.34.41A120.36,120.36,0,0,0,506.14,0c-5.19,0-5.6,0-7.82,4.63-.8,1.65-2.4,6.23-4.86,6.38C491.38,11,489,5.53,487,4.27c-4.67-2.93-12.6-2-17.94-2.24-9.18-.41-18.66.1-27.86-.13-7.5-.21-15.2-.8-22.78-.54-3.89,0-7.37,1.42-11.89,1.47V3c-5.65.77-12.8,2.42-19.51,3.19l-26.4,3c-4.8.54-9.43,1-14.21,1.36-3.12.26-7.12-.44-10.1.18-3.62.77-5.7,5.56-9.1,7.23-4,1.88-5.66-.57-8.42-3.06-3.3-3-4.14-4.12-8.58-3.37s-8.91.28-13.28.57c-9.14.57-18.44,1.93-27.62,3.11-19,2.42-38.22,4-57.16,7.08-9.06,1.49-18.21,3.14-27.3,4.79-1.46.26-5,.31-6.27,1.16-2.28,1.49-1.94,2.73-2.26,5.35-.26,2.19-.12,10.3-2.18,11.66C171.26,44,171.3,37.91,169,35.9s-3.42-1.11-6.73.69c-3.8,2.08-3.7,3.91-7.62,2.57a27.84,27.84,0,0,0-5.6-1.83c-2-.31-5.24.85-7.1.23-3.59-1.21-2.12-2.91-6.53-2-4.21.9-8.42.46-12.63,1.16-8.7,1.18-17.45,4.4-26,7-7.38,2.21-15,4.38-22.35,7-8.16,2.91-16.55,4.58-24.73,7.1-3,.68-5.94,2.71-8.75,6a23.54,23.54,0,0,1-9.21,5.61,48.06,48.06,0,0,1-12.59,3.42,43.17,43.17,0,0,0-6.19.93c-1.6.44-4.24,2.24-5.69,1.7-2.7-.9-1.79-4.45-5.23-4.53A5.78,5.78,0,0,0,0,71.27V82.82Z"/></svg>