<svg xmlns="http://www.w3.org/2000/svg" fill="none" preserveAspectRatio="xMaxYMin slice" viewBox="0 0 1003 557"><defs/><clipPath id="a" width="1003" height="557" x="0" y="0" mask-type="alpha" maskUnits="userSpaceOnUse"><path  d="M981.756 406.101l20.324 42.865v107.731H0V0H741.08l63.82 90.81 44.77 49.849 31.434 109.543 15.558 47.766 19.368 23.675 65.726 84.458z"/></clipPath><g clip-path="url(#a)"><path fill="url(#paint0_linear)" d="M0 0h1592.28v781.427H0z" transform="matrix(-1 0 0 1 1170.28 -63)"/><path fill="#B6A181" fill-opacity=".19" d="M971 402l33 62v-12l-22.5-47-85-107-47-157-44-50L740.332.197h-8L839.5 144 887 300.5 971 402z"/><path fill="#000" fill-opacity=".15" d="M779.6 307.02c-2.63-60.92-4.78-115.61-7.85-171.05-.72-15.2-7.7-27.78-17.22-39.33-20.72-24.96-39.73-51.87-62.56-74.82C671.4 1.34 683.04 1.7 651.11-5L23.28-.78C-10.71 29.23 3.34 138.77 3.34 138.77s2.08 60.37-2.28 94.78L0 293.25l1.52 52.1.76 64.41.15 39.19s11.4-1.43 29.57-12.96c.47-18.98-7-35.58-.22-55.15 6.2.78 11.96.59 17.19 2.41 13.38 4.77 26.61 10.49 39.72 15.97 23.72 9.78 34.2 34.81 24.4 58.85-4.94 12.41-10.68 24.31-16.48 36.39-3.9 7.97-9.37 14.33-18.86 14.49-9.49.16-14.78-6.32-18.73-14.3-5.9-11.76-11.87-23.35-18.1-35.84-22.64 6.57-15.51 4.54-36.22 10.65l1.37 87.34 65.32.91 50.71 9.58s23.79-7.48 39.88-2.06c22.52 7.7 44.52-8.18 67.58-2.49 23.17 5.93 37.12-12.59 46.05 8.61 4.4 9.97 7.62-9.51 11.13.73 3.63 10.48 5.96-12.74 10.66-3.05 2.81 5.73 17.33-4.71 22.79.23 18.5-15.64 26.43 15.16 38.43-2.58 10.77-16 14.23 15.48 24.55-.9 19.56-3.53-4.19 13.07 15.4 8.95 9.96-1.99 6.03 13.99 12.76.46-4.05-17.9 20.56 10.95 16.56-6.53 2.28-3.95 11.24 5.16 11.24 5.16 8.35-14.28 2.54 2.99 11.49-10.7 9.5-14.68 13.07 25.93 29.16 15.81 19.08 6.37 30.1-18.68 40.74-4.28 12.35 16.68 29.64 5.48 11.12 15.27-6.11 3.28 26.95 6.58 18.53 10.78 7.88 21.4 10.99-33.92 22.94-13.97 31.76.18 15.88 23.52 40.25 4.71 15.1-11.71 31.15 3.56 46.63-7.59 22.95-16.54 32.12 5.86 43.75-20.51 22.6-50.96 25.41-55.37 48.52-106.13 7.85-17.13 18.69-30.09 36.75-37.02 19.96-7.81 39.16-17.33 58.53-26.78 5.92-2.75 10.87-7.69 18.48-13.43-24.04-34.11-61.8-47.92-86.42-72.96zM684.35 166.5c-1.99 28.48-4.45 57.18-6.98 87.66-23.29-7.19-35.08-28.09-56.09-40.45 19.16-25.47 26.57-55.88 49.48-76.06 11.89 7.22 14.42 17.47 13.59 28.85zM283.59-.78c-3.76 16.41-1.33 3.1-16 40.99-39.04-9.25-68.62-20.01-100.66-40.88l116.66-.11zM42.06 143.18c.74-5.76 3-11.95 6.43-16.47 10.77-14.39 21.83-28.47 34.06-41.49 10.53-11.05 21.5-8.83 28.25 5.48 9.6 20.45 18.89 41.19 23.67 64.62-4.89 3.15-8.38 6.24-12.57 8.05-26.91 11.78-54.03 23.07-84.53 36.08 1.77-23.11 2.73-39.68 4.69-56.27zM622.49 572.8c-37.37-22.92-43.17-56.43-44.87-93.6 28.03-10.54 56.26-10.92 83.67-16.04 6.33-1.18 13.27 1.3 22.42 2.62-10.01 43.93-27.99 78.52-61.22 107.02zm126.79-174.45c-23.89 7.3-48.1 13.87-72.34 19.42-23.11 5.18-46.59 9.21-69.84 13.13-23.24 3.92-46.63 7.18-72.03 11.07.96 8.64.63 15.98 2.84 22.28 11.88 35.66 19.61 59.04 31.55 94.52l-54.99-.46s-2.25-.93-43.08-24.59c-4.12 5.87-8.71 19.51-11.75 24.59l-172.41.61-20.51-1.06-22.77-.16c-5.26-11.92-11.87-23.35-19.15-37.26-42.95 19.09-62.89 28.76-80.66 39.7 0 0-43.12 3.24-40.71-2.28 8.89-19.96 15.89-34.24 25.29-54 15.42-32.96 24.75-68.08 34.56-105.03-78.37-39.18-77.91-32.35-158.13-71.85 0 0 .46-76.71-.15-76.41 44.13-18.03 49.73-18.18 93.43-37.18 25.72-11.23 48.36-28.49 72.41-44.81-20.44-52.48-39.6-102.05-60.78-156.83 32.48 13.77 60.54 25.63 88.5 37.26 28.48 11.82 50.48 36.47 82.69 43.48 17.88-41.29 21.12-51.94 38.81-92.7l15.61.11 101.16-.23s15.86.78 26.32 30.65c10.85-3.87 20.23-7.5 29.73-10.89-1.03-19.16-.28-.65-1.25-19.98 77.92-12.76 73.6 11.26 112.03 29.15 5.55 2.55 8.62 10.8 12.27 15.84-5.44 13.23-16.54 16.19-26.16 19.93-15.35 5.96-31.3 10.89-47.35 15.57-21.46 6.02-27.26 2.57-36.79-21.29-.73-2.3-1.93-4.38-3.11-7.05-11.18-4.33-19.82 1.01-28.04 7.91-.28 2.92-1.43 5.5-.74 7.38 3.03 7.83 6.4 15.79 10.37 23.17 13.62 25.03 34.26 33.02 59.47 23.2 34.18-13.4 68.49-27.16 102.85-40.5 6.14-2.27 12.96-2.65 23.33-4.69-11.87 32.93-33.95 54.04-49.14 79.42-15.32 25.74-33.73 49.68-51.81 75.97 7.27 6.44 12.62 12.75 19.33 16.95 20.3 12.69 40.79 24.85 61.65 36.55 50.04 28.03 100.34 55.35 150.21 83.31 5.87 3.28 10.55 8.72 17.43 14.61-21.39 17.56-46.09 16.88-68.15 23.47z"/><path fill="#000" fill-opacity=".15" d="M508.66 166.12c-21.05 5.98-38.99 19.01-60.85 21.85-5.96-19.65 10-32.64 11.76-51.93-13.85-9.39-27.48-21.52-43.26-28.84-20.54-9.36-42.01-12.42-64.46.08-42.48 23.71-84.12 49.96-130.33 66.17-1.12.37-2.13.99-3.25 1.36-15.43 6.74-24.96 17.17-26.16 35.47-1.7 25.56-7.65 50.9-7.14 76.31 1.28 67.26-12.18 46.12 43.09 89.88 13.26-1.33 27.42-3.51 41.55-3.49 9.49-.16 15.46 13.04 9.96 21.6-4.44 6.75-9.95 12.69-15.51 19.82 13.04 16.95 9.9 35.7 11.15 53.73.83 10.61 4.95 18.66 15.23 22.23 11.31 3.97 21.15 2.33 28.84-7.4 4.03-5.1 7.61-10.57 15.64-21.78 1.06 13.72 1.4 20.31 2.15 26.85 1.43 13.26 5.73 16.54 17.35 18.61 14.8 2.5 24.49-6.26 33.92-14.31 35.12 12.98 45.03 7.93 53.52-28.11 5.53-23.68 10.14-47.51 15.33-71.32 1.47-6.69 3.76-13.47 5.81-20.14 15.75 2.06 29.84 4.88 43.89 5.68 27.17 1.43 39.56-9.31 41.87-37.05 2.09-26.62 1.17-53.6 4.6-80.11 5.6-42.63-11.22-72.33-44.7-95.16zM264.03 274.01c7.38-16.91 22.38-26.24 36.68-38.46 13.94 19.31 20.12 39.45 20.33 65.14-33.38-8.06-33.38-8.06-57.01-26.68zm80.22 105.45c10.15-18.06 20.37-36.29 32.27-57.51 12.29 20.08 17.78 38.34 17.56 59.84-17.18 8.28-32.68 15.2-49.83-2.33zm110.33-55.55c-7.47.54-13.75-1.08-17.35-8.93-3.58-8.45-4.07-17.31 2.05-23.82 8.9-9.27 19.53-16.85 31.85-27.42 3.63 7.25 7.13 11.63 8.29 16.52 3.02 12.67 4.92 25.7 7.92 42.19-13.83.71-23.21 1.12-32.76 1.46zM696.34 324.63c-14.36-7.98-28.28-17.19-42.96-24.28-16.52-8-23.62-3.09-26.95 14.59-5.26 27.21-3.16 55.26-12.18 82.02-2.55 7.49 3.86 13.59 11.41 15.51 4.5 1.13 9.38 1.21 13.9.13 30.99-7.38 61.94-15.17 92.93-22.55 13.73-3.16 23.38-10.72 30.58-29.32-14.82-8.35-28.21-15.75-41.67-22.98-8.16-4.57-16.74-8.49-25.06-13.12zM98.12 236.26c-30.54 9.36-61.28 19.26-91.46 29.78l-.74 33.14c34.15 20.47 36.53 14.99 66.15 27.46 17.12 7.43 31.64 8 46.67-3.53 2.6-21.58 6.78-43.16 7.64-64.82.63-18.32-11.5-27.04-28.26-22.03z"/></g><path fill="#0B1E24" d="M1002 422l-7-8.5-17.5-23.5-51-74-19-26-11-33.5-11-47-21-74.5-20.5-18.5L821.5 94 769 40l35.5 50.5 45 50.5 23 79 11.5 39.5 12.5 39L918 324l22.5 29 41.5 53 6.5 14.5 13.5 28V422z" opacity=".4"/><defs><linearGradient id="paint0_linear" x1="58.863" x2="1571.83" y1="390.713" y2="390.713" gradientUnits="userSpaceOnUse"><stop stop-color="#2D3B3C"/><stop offset=".354" stop-color="#223839"/><stop offset=".646" stop-color="#0A2021"/><stop offset="1" stop-color="#020606"/></linearGradient></defs></svg>