<svg width="100" height="100" viewBox="0 0 100 100" fill="none" xmlns="http://www.w3.org/2000/svg"><g clip-path="url(#clip0)"><path d="M46.1662 46.941C45.0848 46.941 44.2311 47.891 44.2311 49.05C44.2311 50.209 45.1038 51.159 46.1662 51.159C47.2476 51.159 48.1013 50.209 48.1013 49.05C48.1202 47.891 47.2476 46.941 46.1662 46.941ZM53.0908 46.941C52.0094 46.941 51.1557 47.891 51.1557 49.05C51.1557 50.209 52.0284 51.159 53.0908 51.159C54.1721 51.159 55.0258 50.209 55.0258 49.05C55.0258 47.891 54.1721 46.941 53.0908 46.941ZM62.3109 31H36.8892C36.3772 31.0012 35.8705 31.1035 35.3979 31.3008C34.9254 31.4982 34.4963 31.7869 34.1352 32.1503C33.774 32.5138 33.4879 32.9449 33.2931 33.4191C33.0984 33.8933 32.9988 34.4013 33 34.914V60.602C32.9988 61.1147 33.0984 61.6227 33.2931 62.0969C33.4879 62.5711 33.774 63.0022 34.1352 63.3657C34.4963 63.7291 34.9254 64.0178 35.3979 64.2152C35.8705 64.4125 36.3772 64.5148 36.8892 64.516H58.4028L57.3973 61.001L59.8256 63.262L62.1212 65.39L66.2 69V34.914C66.2013 34.4013 66.1017 33.8933 65.9069 33.4191C65.7121 32.9449 65.426 32.5138 65.0648 32.1503C64.7037 31.7869 64.2746 31.4982 63.8021 31.3008C63.3296 31.1035 62.8228 31.0012 62.3109 31V31ZM54.9879 55.814C54.9879 55.814 54.3049 54.997 53.7358 54.275C56.221 53.572 57.1696 52.014 57.1696 52.014C56.487 52.469 55.7551 52.8451 54.9879 53.135C54.1053 53.5123 53.1823 53.7864 52.237 53.952C50.6122 54.2516 48.9459 54.2452 47.3234 53.933C46.3709 53.7463 45.4374 53.4729 44.5346 53.116C44.0588 52.9327 43.596 52.7169 43.1497 52.47C43.0928 52.432 43.0359 52.413 42.979 52.375C42.9504 52.3608 42.9247 52.3415 42.9031 52.318C42.5616 52.128 42.3719 51.995 42.3719 51.995C42.3719 51.995 43.2825 53.515 45.6919 54.237C45.1228 54.959 44.4208 55.814 44.4208 55.814C40.2281 55.681 38.6345 52.926 38.6345 52.926C38.6345 46.808 41.3664 41.849 41.3664 41.849C44.0983 39.797 46.6974 39.854 46.6974 39.854L46.8871 40.082C43.4722 41.07 41.8976 42.571 41.8976 42.571C41.8976 42.571 42.315 42.343 43.0169 42.02C44.3806 41.3966 45.834 40.9926 47.3234 40.823C47.4296 40.801 47.5376 40.7883 47.646 40.785C48.9173 40.6191 50.2038 40.6064 51.4782 40.747C53.4822 40.9762 55.4221 41.5959 57.1886 42.571C57.1886 42.571 55.6898 41.146 52.4647 40.158L52.7303 39.854C52.7303 39.854 55.3294 39.797 58.0613 41.849C58.0613 41.849 60.7932 46.808 60.7932 52.926C60.7932 52.926 59.1806 55.681 54.9879 55.814Z" fill="white"/></g><defs><clipPath id="clip0"><rect width="33.2" height="38" fill="white" transform="translate(33 31)"/></clipPath></defs></svg>