<svg xmlns="http://www.w3.org/2000/svg" viewBox="0 0 229.8 85.4" preserveAspectRatio="none" ><path fill="#005c37" d="M228.7 13c-1.8-3.4.9-7-1.7-9.3l-1.2-.1c-3.3-.2-6.9-.2-10.5-.5-3.6-.2-7.2-.7-10.7-1.7-.4 0-.9-1.3-1.4-1.3l-1.4-.1c-2.1-.1-4.2.9-6.2.7-2.8-.2-5.6.2-8.5.2s-5.8.6-8.6.9c-2.1.2-4.2.6-6.2.8-1.5.2-2.9.4-4.4.5-2.1.2-4.3.4-6.4.6-3.1.3-6.3.6-9.3.7h-5.1c-2.5 0-5-.1-7.6-.2-2.1-.1-4.2-.2-6.4-.3-1.9 0-3.9-.1-5.8-.3-3.4-.4-6.8-.6-10.2-.5-1.6.1-3.1.1-4.6 0-3.2-.2-6.4-.2-9.7 0-1.2.1-2.3.1-3.5 0-.6-.1-1.5-.1-2.4-.1l-9.1.4c-2.6.1-5.1.1-7.5.2-1.7 0-3.3.1-5 .2-1.8.1-3.7.3-5.5.4-.4 0-.7 0-1.1.1-1.6.2-3.1.2-4.7.2-1.3.1-2.7.1-4 .3H45.3c-1.9 0-3.7.1-5.5.2s-3.8.3-5.6.5c-1.6.2-3.1.3-4.7.3-3.4 0-6.8.2-10.2.5-3.2 0-6.3.1-9.4-.1-.4 0-.8 0-1.2.1-.9.3-1.9.5-2.9.4-.7-.2-1.4-.1-2.1.3l-.1.1c-.4.8-.7 1.6-.9 2.4-.2 2.1.1 4.3-.8 6.4C1.3 17.4.8 19 .4 20.6l-.1.3L3 22.7 0 23v2l5.9 2.7-5.3-.3c0 .3 0 .5.1.8.1.9 1 1.8 1 2.7-.1 1.7-.3 3.4-.7 5.1-.5 1.9-.1 3.8 1 5.4.5.5.9 1 1.2 1.6.6 1.8 1.1 3.7 1.4 5.7.2 2.6.3 5.2.2 7.8 0 .6-.1 1.3-.1 1.9 0 1.1 0 2.1.1 3.2.1.8.6 1.6.6 2.4.1 2.1-.4 4.3-1.3 6.2-.5 1-.9 2-1.1 3.2-.3 2.4-.7 4.9-1.1 7.4-.2 1.3 1.1 1.9 3.9 2.1.4 0 .8.1 1.3.2 1.6.3 3.2.3 4.8.1 1.3-.3 2.5-.5 3.8-.7 2.3-.1 4.7-.1 6.9-.1 1.1.1 2.2.3 3.3.6 3.3.7 6.6 1.3 10 1.8 2.8.3 5.7.5 8.7.6 2.5.1 5 .2 7.6.2 1.4 0 2.8-.1 4.2-.2 1.2-.1 2.3-.2 3.5-.2 2 0 4 0 6 .1s4.3.2 6.5.2 4.4 0 6.5-.2c4-.2 8.1-.2 12.1-.2 3.1 0 6.2-.1 9.3-.5 1.6-.3 3.3-.4 4.9-.4 4.5.1 9 .2 13.5.4 3.3.2 6.5.5 9.8.8 3.4.2 6.8.2 10.2-.2 1.2-.1 2.5-.3 3.7-.3 3-.2 6.1-.2 9.1-.4 1.1-.1 2.3-.2 3.4-.3 2.2-.3 4.4-.6 6.6-.8.4 0 .7 0 1.1.1 3.6.5 7.1 1.1 10.8 1.5 3 .3 6.1.5 9.2.6 1.9 0 3.8 0 5.7-.1 2.9-.1 5.7-.3 8.6-.5.8-.1 1.6-.3 2.4-.5 2.2-.3 4.4-.6 6.7-.9l9.6-.9c2.7-.3 5.2-.7 6.5-1.9.3-.1.7-.2 1-.2.2 0 .4.2.5.3.1.4.2.7.3 1.1.7.3 1.5.1 2.1-.3.4-.3.8-.7 1-1.2.1-.5.3-2.3.4-2.8-.5-1.5-.5-3-.5-6.9h-4.4c1.5 0 2.9-2.9 4.4-.8 2.9-2 0-7.5 2.8-9.4-1.5-2-2.6-4.2-3.4-6.5-.8-2.4-1.4-5-1.6-7.5-.3-2.8-.3-5.6-.2-8.3.1-2.9.4-5.8.8-8.6s.9-5.6 1.4-8.2 1.1-5.1 1.6-7.4c.2-.7.3-.9.4-1.1z"/><path fill="#005b32" d="M213.7 64.7c-.3 0-.6 0-.8-.3-.3-.5.3-1 .9-1.2 3.4-1.2 6.9-2 10.4-2.4l1.6-.2c.7-3.3-.1-7.3-.9-10.8-3.2-14.2-1.4-29 .5-43.4-9.9-.3-19.8-.5-29.7-.7-3.6 1.1-7.6 1.6-10.4 4.1-.5.6-1.1 1-1.8 1.4-.8.3-1.7.3-2.6.2l-4.2-.5c-11.5 13.5-26.4 24-41 34.3-2.4 1.7-4.9 3.4-7.7 4-3.2.7-6.4 0-9.6-.7C87.7 41.5 57 34 26.5 26c-7.4-2-14.8-4-22.3-5.5.1 1.3.2 2.7.2 4 2.7-.1 5.3-.1 8-.1-.3 2.1-1.4 4-3.1 5.3-1.2 1-2.7 1.6-3.8 2.8-.3.4-.6.8-.9 1.1.6 14 .3 27.9-.6 41.8-.1 1.8-.2 3.8 1 5.1.9.8 2.1 1.4 3.3 1.5 5.5 1.1 11.1 1.5 16.7 1.4 1.7-2.1 3.4-4.1 5.1-6.2.2-.3.5-.5.8-.7.7-.2 1.3.5 1.7 1.1 1.2 1.9 2.2 4.3 4.3 4.7.5.1 1.3.3 1.5.7 14-.4 27.9-.4 41.9-.4l51 .1h10c-.5-1.1-1.2-2.1-1.9-3-.9-1.2-2.1-2.5-2-4l5.5 3c1 .6 2.1 1.1 3.2 1.5.8.3 1.6.4 2.4.8.9.4 1.8 1 2.5 1.8h3.9c23.7 0 47.3.1 71 1.2 1.1-5.9 1.4-12 .9-18l-3.8-1 .1-.1c-3.1-.2-6.3-.3-9.4-.2z"/><path fill="#005c37" d="M9.5 29.8c1.6-1.3 2.7-3.2 3.1-5.3-2.7-.1-5.3 0-8.1.1.2 3.1 1.1 5 1.2 8.1.3-.4-.3.4 0 0 1-1.3 2.5-1.9 3.8-2.9zM37 82.3c-2.2-.4-3.2-2.8-4.3-4.7-.4-.6-1-1.3-1.7-1.1-.3.1-.6.4-.8.7-1.7 2-2.5 3-4.2 5.1 3.9 0 6.8.9 10.7.8h1.8c-.2-.5-.9-.7-1.5-.8zm109.3-2.1c-1.1-.4-2.2-.9-3.2-1.5l-5.5-3c-.1 1.5 1.1 2.8 2 4 .6.6 1 1.3 1.4 2 3.2 0 7 1.1 10.2 1.1-.7-.7-1.6-1.3-2.5-1.8-.8-.3-1.6-.5-2.4-.8zm79.4-19.5l-1.6.2c-3.6.4-7.1 1.2-10.4 2.4-.5.2-1.2.7-.9 1.2.2.2.5.3.8.3 3.2-.1 6.4 0 9.5.2 1.4-1.2 2.3-2.7 2.6-4.3zM181 5.7c-1.4 1.8-2.8 3.6-4.3 5.3l4.2.5c.9.2 1.8.1 2.6-.2.7-.4 1.3-.9 1.8-1.4 2.8-2.5 6.8-3 10.4-4.1-4.9 0-9.8-.1-14.7-.1z"/><path fill="#00663a" d="M118.4 48.6c3.2.7 6.4 1.4 9.6.7 2.9-.6 5.3-2.3 7.7-4 14.6-10.3 29.5-20.8 41-34.3l-4.1-.4c-6.3-.7-12.5-1.3-18.8-2.3-2.7-.4-5.3-.9-8-1.3-4.7.4-9.3.6-14 .3-4.9-.4-9.7-1.5-14.6-1.9-6.3-.4-12.6.5-18.9 1-1.4.1-2.8.2-4.1.3-.9 1.4-.4 3.4-1.4 4.6-1.1 1-2.8 1-3.9.1-1.1-1-1.9-2.2-2.4-3.5l-.5-1c-4.6 0-9.2-.1-13.8-.3l-.5.4-5.1 3.7c.4-1.5 1-3 1.8-4.3-12.5-.4-25-.9-37.4 1-6.5 1-13.2 2.5-19.4.3-2.8-1-6.3-2.5-8.1-.2l-.1.8.9 12.3C11.7 22 19.2 24 26.5 26c30.5 8 61.1 15.5 91.9 22.6z"/><path fill="#005c37" d="M86.5 7.7l.1.1c.5 1.3 1.3 2.6 2.4 3.5 1.1.9 2.8.9 3.9-.1.8-.9.7-2.3 1-3.6l-7.4.1zm-18-1.3c-.9 1.3-1.5 2.8-1.9 4.3l4.3-3.2c-.8-.2-1.7-.6-2.4-1.1z"/><path fill="#005c37" d="M147 6.9l-1.1.1c2.6.5 5.3.9 8 1.3 6.2.9 12.5 1.6 18.7 2.3l4.1.4c1.5-1.7 2.9-3.5 4.3-5.3-11.3.1-22.6.4-34 1.2z"/></svg>