<svg width="1600" height="140" viewBox="0 0 1600 140" fill="none" xmlns="http://www.w3.org/2000/svg"><mask id="mask0_83_4094" style="mask-type:alpha" maskUnits="userSpaceOnUse" x="-25" y="0" width="1656" height="140"><path d="M1398.65 138.554L1621.69 136.646L1616.12 125.97L1627.23 99.2509L1611.5 87.5267L1625.38 40.5376L1614.3 24.3082L1629.07 20.1144L1630.92 2.59746L1499.84 2.85896L1372.82 1.63701L1298.4 4.55559L1211.36 0.268753L966.853 3.29643L675.296 1.88365L635.622 4.61967L601.484 0.205338L267.484 1.87439L119.86 0.579041L-18.5399 3.31506L-9.3136 16.2701L-21.1332 26.2578L-8.39087 47.5273L-0.0286865 57.1039L-17.6001 60.1462L-16.6753 83.793L-24.9984 102.047L-15.7506 104.259L-12.0514 111.865L-2.85486 122.666L-9.3136 135.597C30.9756 136.18 117.276 137.345 140.158 137.345C163.04 137.345 292.396 137.914 292.396 137.914L391.119 136.314L482.462 137.914C482.462 137.914 621.044 135.792 666.069 135.233C711.095 134.673 738.344 138.22 749.108 138.453C751.876 136.472 767.561 137.462 770.329 137.113C772.955 136.781 783.861 135.773 790.627 139.152C836.452 138.569 939.912 138.438 961.318 138.438C988.074 138.438 1159.69 135.889 1191.06 135.889C1198.44 135.889 1275.94 137.027 1283.32 135.28L1398.65 138.554Z" fill="black"/></mask><g mask="url(#mask0_83_4094)"><rect x="-18.8337" y="-123.456" width="1679.05" height="361.26" fill="url(#paint0_radial_83_4094)"/><g filter="url(#filter0_f_83_4094)"><path d="M1658.67 -4.27819L1340.88 -6.20945C1323.86 -4.00996 1287.82 0.389023 1279.79 0.389023C1271.76 0.389023 1228.89 3.92967 1208.46 5.69999L1215.08 12.9422L1303.93 16.6438C1318.88 16.8584 1349.5 17.2232 1352.41 16.9657C1356.04 16.6438 1382.31 20.3454 1384.87 20.9891C1386.92 21.5041 1427.44 24.1006 1447.45 25.3345C1469.59 30.1626 1514.38 39.8189 1516.43 39.8189C1518.48 39.8189 1538.79 45.8273 1548.68 48.8314L1543.77 60.7409L1577.73 76.3519L1582.85 81.0191C1591.4 87.1884 1608.74 99.7845 1609.76 100.815C1611.05 102.102 1622.58 117.391 1620.44 118.679C1618.31 119.966 1636.03 156.821 1636.46 158.43C1636.8 159.718 1641.44 174.149 1653.33 175.49L1658.67 -4.27819Z" fill="#F1BC55" fill-opacity="0.28"/></g><g filter="url(#filter1_f_83_4094)"><path d="M19.3024 103.043C16.9916 100.526 -2.43081 -19.2956 -11.8531 -78.8916C-16.805 -71.2633 -26.8738 -55.4346 -27.534 -53.1461C-28.3594 -50.2855 -38.0568 77.8698 -40.3264 84.7352C-42.1421 90.2276 -41.3581 182.568 -40.7391 228.052C72.5351 229.005 305.026 231.427 328.795 233.487C352.564 235.547 361.12 216.991 362.426 207.455L227.488 196.871C181.889 187.05 88.67 166.835 80.5819 164.546C70.4719 161.686 22.191 106.19 19.3024 103.043Z" fill="#1A0C03" fill-opacity="0.83"/></g><g filter="url(#filter2_f_83_4094)"><path d="M683.438 24.5048L953.167 21.0489L1166.83 201.189C896.089 203.205 350.368 207.237 333.396 207.237C316.424 207.237 293.998 179.59 284.906 165.766L372.795 94.4874L447.046 59.9281L683.438 24.5048Z" fill="url(#paint1_linear_83_4094)" fill-opacity="0.2"/></g><g style="mix-blend-mode:overlay" filter="url(#filter3_f_83_4094)"><path d="M-3.39304 -64.8961L-1.94874 -157.58L-17.217 -166.734L-34.9613 -46.3021C-35.3739 6.71443 -36.5294 114.75 -37.8499 122.76C-39.1704 130.769 -22.3065 136.395 -13.7095 138.207L73.7737 149.077L171.367 136.777H300.941L428.658 122.76L388.424 119.327L356.443 121.901L322.812 118.755L283.816 112.748L250.597 122.76L192.619 112.175L118.753 118.755L53.3472 119.899L27.3499 120.757L9.60564 116.18H1.55884L-1.53609 114.178L-2.3614 89.5766L-4.42468 64.9754L-1.74241 43.5209L-5.04367 -1.39062L2.79681 -27.4221L-3.39304 -64.8961Z" fill="url(#paint2_radial_83_4094)"/></g><path d="M1202.17 43.7696L1131.14 44.7493L1124.65 55.263L1201.02 59.5358L1272.17 36.8345L1306.74 47.8309L1384.13 32.6741L1442 47.7953L1493.06 14.4492L1505.41 0.868673C1487.12 7.71088 1449.7 22.218 1446.35 25.5091C1443 28.8001 1418.06 24.8863 1406.01 22.5181L1329.85 24.3089L1292.34 26.9068L1202.17 43.7696Z" fill="black" fill-opacity="0.05"/><path d="M1351.14 165.518C1348.49 176.407 1343.36 199.533 1344.06 204.923L1279.75 211.733L1302.11 189.961L1318.81 179.227L1325.35 174.927L1326.29 150.938C1323.79 143.57 1318.18 128.564 1315.68 127.476C1313.18 126.388 1327.06 110.554 1334.32 102.774L1312.24 64.7224L1337.38 69.8701L1352.62 103.758L1344.48 131.373L1351.14 165.518Z" fill="black" fill-opacity="0.05"/><path d="M1339.17 181.321C1339.36 188.618 1339.85 203.681 1340.25 205.556L1313.38 214.097C1315.19 205.983 1318.92 189.079 1319.39 186.375C1319.86 183.671 1326.21 180.554 1329.33 179.333L1330.01 153.211L1311.95 125.401L1315.53 104.987C1319.15 114.959 1326.61 134.948 1327.52 135.131C1328.43 135.314 1327.94 123.266 1327.58 117.219C1330.91 113.261 1337.73 105.07 1338.43 103.961C1339.13 102.852 1333.73 86.811 1330.94 78.9291C1329.5 64.4764 1326.55 34.9195 1326.29 32.3135C1325.96 29.056 1338.11 69.465 1338.87 73.0452C1339.64 76.6253 1345.45 90.4527 1345.59 94.4966C1345.74 98.5406 1340.38 120.842 1340.28 123.777C1340.19 126.125 1345.16 143.315 1347.65 151.617L1339.17 181.321Z" fill="black" fill-opacity="0.05"/><path d="M1338.77 110.811L1334.85 79.8552C1334.75 87.9078 1334.55 104.291 1334.59 105.403C1334.64 106.792 1329.1 118.449 1328.96 119.736C1328.83 121.024 1329.13 136.976 1328.99 138.137C1328.88 139.066 1331.9 148.454 1333.42 153.032L1327.29 188.63C1330.41 177.466 1336.8 154.942 1337.35 154.158C1337.9 153.374 1334.75 135.508 1333.1 126.673L1338.77 110.811Z" fill="black" fill-opacity="0.05"/><path d="M1312.36 -103.404L1289.3 -135.994L1318.86 -138.671L1323.66 -105.802L1318.56 -86.8427L1322.51 -57.541L1324.89 -11.6551L1325.54 36.4923L1310.32 -57.1823L1312.36 -103.404Z" fill="black" fill-opacity="0.05"/><path d="M1325.34 -86.9859L1315.36 -137.95L1295.2 -142.874L1314.94 -104.637L1311.3 -85.1116L1315.89 -63.0042L1315.2 -37.1441C1318.81 -12.366 1326.37 37.9049 1327.78 40.7637C1329.18 43.6224 1324.96 -12.1724 1322.68 -40.4271L1325.34 -86.9859Z" fill="black" fill-opacity="0.05"/><path fill-rule="evenodd" clip-rule="evenodd" d="M1143.99 77.6469L1146.62 -6.87296L1200.05 -22.7962L1238.11 -120.876L1282.74 -109.839C1290.55 -100.237 1307.17 -84.5557 1311.15 -98.6393C1315.13 -112.723 1363.35 -144.531 1386.96 -158.675C1402.19 -161.975 1434 -168.071 1439.38 -166.055C1446.1 -163.535 1519.12 -173.556 1522.02 -174.878C1524.92 -176.199 1560.96 -187.78 1571.18 -169.612C1579.36 -155.077 1599.16 -9.66232 1608.03 61.2282C1572.48 93.4999 1499.36 158.377 1491.33 159.711C1487.13 160.407 1451.1 172.748 1410.53 186.64C1353.96 206.016 1288.57 228.409 1288.44 226.445C1288.36 225.098 1272.49 220.795 1253.46 215.635C1224.84 207.874 1189.07 198.173 1189.07 193.672C1189.07 187.675 1157.25 139.867 1141.33 116.712L1143.99 77.6469ZM1266.29 -81.2235L1255.22 -9.25515L1224.31 28.1658L1207.64 51.2299C1209.86 65.6563 1214.48 95.2851 1215.16 98.3895C1215.83 101.494 1251.24 97.4236 1268.86 95.0005C1282.94 110.774 1312.39 142.024 1317.57 140.835C1321.1 140.022 1340.26 118.167 1357.66 98.3268C1372.13 81.8352 1385.37 66.7354 1387.4 66.269C1389.96 65.6795 1414.45 60.5299 1435.33 56.1382C1450.85 52.8734 1464.39 50.0275 1465.44 49.7853C1465.95 49.6676 1467.3 49.7632 1469.12 49.8918C1476.07 50.3835 1489.85 51.3583 1489.68 42.7419C1489.55 35.9827 1461.47 12.5261 1440.19 -5.25281C1427.25 -16.0655 1416.82 -24.7781 1416.72 -26.3574C1416.47 -30.323 1457.37 -67.2631 1474.53 -82.7693C1475.45 -83.5931 1476.29 -84.3563 1477.06 -85.0509C1479.2 -86.9861 1481.31 -88.8641 1483.37 -90.6897C1495.95 -101.854 1506.32 -111.059 1506.61 -119.39C1506.89 -127.144 1448.42 -104.103 1419.15 -91.6125C1415.52 -82.956 1406.85 -65.8702 1401.16 -66.7783C1399.07 -67.1113 1395.81 -67.5245 1392.19 -67.9834C1383.47 -69.0888 1372.66 -70.4589 1371.15 -71.6096C1370.21 -72.3259 1364.5 -69.6738 1358.34 -66.8109C1350.49 -63.1659 1341.91 -59.1792 1341.5 -61.3677C1340.92 -64.4936 1337.08 -80.9387 1335.23 -88.7705L1317.62 -65.49L1285.88 -58.1886L1266.29 -81.2235Z" fill="black" fill-opacity="0.03"/><path fill-rule="evenodd" clip-rule="evenodd" d="M-69.4267 76.2565L-66.7916 -8.26331L-13.3667 -24.1865L24.6981 -122.266L69.3286 -111.229C77.1402 -101.628 93.7575 -85.946 97.7344 -100.03C101.711 -114.113 149.934 -145.921 173.548 -160.065C188.778 -163.365 220.583 -169.461 225.963 -167.445C232.689 -164.925 305.708 -174.946 308.608 -176.268C311.509 -177.589 347.542 -189.17 357.767 -171.002C365.947 -156.467 385.743 -11.0525 394.618 59.8381C359.063 92.1098 285.944 156.987 277.911 158.32C273.718 159.017 237.683 171.357 197.117 185.25C140.542 204.625 75.1534 227.019 75.0287 225.055C74.9433 223.708 59.0763 219.405 40.0469 214.245C11.4282 206.484 -24.343 196.783 -24.3419 192.281C-24.3404 186.285 -56.1673 138.477 -72.081 115.322L-69.4267 76.2565ZM52.8733 -82.6146L41.8045 -10.6462L10.894 26.7748L-5.77665 49.8389C-3.551 64.2653 1.06873 93.8942 1.74244 96.9985C2.41615 100.103 37.8242 96.0327 55.4441 93.6096C69.5243 109.383 98.9782 140.634 104.151 139.444C107.683 138.631 126.849 116.777 144.249 96.936C158.712 80.4443 171.954 65.3445 173.982 64.8781C176.545 64.2886 201.031 59.1391 221.913 54.7474C237.438 51.4826 250.97 48.6367 252.023 48.3945C252.535 48.2768 253.886 48.3723 255.704 48.5009C262.655 48.9926 276.436 49.9675 276.269 41.3511C276.138 34.5919 248.059 11.1352 226.777 -6.64369C213.834 -17.4564 203.405 -26.169 203.305 -27.7484C203.054 -31.7139 243.95 -68.6532 261.118 -84.1597C262.03 -84.9837 262.875 -85.7471 263.644 -86.4418C265.784 -88.3771 267.9 -90.2551 269.957 -92.0808C282.536 -103.245 292.906 -112.45 293.199 -120.781C293.471 -128.535 235.002 -105.494 205.734 -93.0035C202.107 -84.347 193.431 -67.2611 187.744 -68.1692C185.658 -68.5022 182.397 -68.9155 178.776 -69.3744C170.053 -70.4798 159.242 -71.8499 157.736 -73.0006C156.799 -73.7169 151.088 -71.0648 144.924 -68.2019C137.076 -64.5569 128.492 -60.5702 128.087 -62.7587C127.507 -65.8846 123.666 -82.3297 121.819 -90.1615L104.207 -66.8811L72.4631 -59.5796L52.8733 -82.6146Z" fill="black" fill-opacity="0.1"/><path d="M516.973 -92.5564L498.611 -172.04L478.379 -172.553L488.642 -83.6393L545.694 -18.0905L534.21 28.0299L579.294 105.504L565.918 180.572L637.216 216.559L664.277 221.691C647.82 205.495 613.245 172.691 606.603 171.041C599.961 169.391 601.092 138.726 602.488 123.599L581.484 38.8608L568.083 -1.7755L516.973 -92.5564Z" fill="black" fill-opacity="0.05"/><path d="M335.124 154.341C315.121 158.405 272.759 167.603 263.329 171.885L236.163 103.758L280.146 114.876L303.16 126.76L312.342 131.347L355.262 116.87C367.791 109.282 393.187 93.2256 394.539 89.7025C395.892 86.1795 427.321 91.5822 442.867 94.7239L505.43 45.1719L502.15 76.8633L445.397 116.002L394.341 124.714L335.124 154.341Z" fill="black" fill-opacity="0.05"/><path d="M304.195 151.077C291.252 156.021 264.555 166.328 261.312 168.002L239.822 143.221C254.688 140.004 285.649 133.262 290.571 132.04C295.494 130.817 302.528 135.964 305.43 138.69L352.087 122.541L397.36 84.1513L434.534 74.9669C417.63 85.5054 383.796 106.87 383.684 108.018C383.572 109.165 404.902 100.806 415.581 96.4834C423.403 97.6713 439.58 100.064 441.717 100.131C443.853 100.198 471.142 83.7191 484.519 75.4713C509.907 64.4828 561.826 42.0092 566.402 40.0234C572.123 37.5411 503.04 77.4192 496.847 80.6027C490.654 83.7862 467.401 99.2947 460.238 102.079C453.074 104.863 412.126 113.271 406.877 115.052C402.679 116.477 373.243 133.215 359.05 141.406L304.195 151.077Z" fill="black" fill-opacity="0.05"/><path d="M429.602 104.949L483.784 80.4744C469.428 85.5766 440.222 95.9723 438.253 96.7377C435.791 97.6943 413.745 98.9891 411.423 99.6714C409.1 100.354 380.776 111.031 378.677 111.626C376.998 112.103 360.993 121.585 353.201 126.267L288.405 142.413C309.007 138.704 350.592 131.314 352.117 131.427C353.641 131.54 384.704 116.411 400.044 108.832L429.602 104.949Z" fill="black" fill-opacity="0.05"/><path d="M804.71 -63.607L857.322 -110.724L869.004 -79.1175L811.623 -52.4082L776.683 -45.8816L725.452 -22.4443L644.336 9.9635L558.79 41.8886L721.961 -35.965L804.71 -63.607Z" fill="black" fill-opacity="0.05"/><path d="M778.523 -38.3316L866.901 -82.5983L870.95 -108.527L807.507 -61.4983L771.903 -52.9505L733.628 -33.4465L687.437 -17.4778C644.178 2.6411 556.469 43.7381 551.71 47.1749C546.95 50.6117 645.273 9.70923 695.03 -11.1716L778.523 -38.3316Z" fill="black" fill-opacity="0.05"/><path fill-rule="evenodd" clip-rule="evenodd" d="M459.499 -136.221L613.982 -190.308L653.312 -140.345L839.343 -163.324L827.859 -105.147C811.877 -89.7849 786.52 -60.3082 812.945 -65.3002C839.37 -70.2921 906.634 -36.9691 936.962 -19.6836C945.917 -4.60362 963.168 27.4254 960.535 34.9019C957.243 44.2475 989.606 120.466 992.574 122.87C995.542 125.274 1023.6 158.404 992.479 182.295C967.581 201.409 706.497 322.116 579.067 380.08C513.407 361.467 381.09 322.182 377.108 313.954C375.03 309.658 345.586 277.04 312.44 240.319C266.212 189.107 212.783 129.916 216.336 128.448C218.773 127.441 223.546 106.502 229.271 81.3901C237.88 43.6233 248.641 -3.5824 256.842 -6.62159C267.766 -10.6696 348.712 -79.1295 387.819 -112.853L459.499 -136.221ZM767.739 -103.501L634.338 -67.4641L560.051 -77.3121L514.731 -80.6764C488.86 -68.4021 435.736 -43.138 430.207 -40.2754C424.678 -37.4129 439.029 0.0746053 446.896 18.4605C420.888 45.1163 369.668 99.6965 372.85 104.771C375.022 108.236 418.626 115.253 458.21 121.623C491.113 126.918 521.239 131.766 522.487 133.756C524.063 136.27 538.244 160.614 550.338 181.377C559.331 196.815 567.17 210.272 567.817 211.305C568.132 211.807 568.222 213.407 568.344 215.56C568.807 223.791 569.727 240.11 585.406 234.1C597.706 229.385 634.984 181.632 663.239 145.438C680.423 123.426 694.27 105.689 697.13 104.509C704.312 101.545 779.676 123.066 811.311 132.1C812.992 132.58 814.549 133.025 815.966 133.428C819.914 134.554 823.753 135.69 827.484 136.794C850.305 143.546 869.119 149.113 884.367 143.818C898.561 138.889 845.102 88.0113 816.598 63.1883C800.103 64.9144 767.249 66.5974 767.792 59.5206C767.991 56.9255 768.107 52.9405 768.235 48.5156C768.543 37.857 768.926 24.6456 770.73 22.1571C771.852 20.608 765.899 15.9105 759.472 10.8397C751.289 4.38352 742.34 -2.67787 746.251 -4.61738C751.838 -7.38768 781.074 -22.8607 794.993 -30.2509L749.095 -34.5378L729.568 -65.679L767.739 -103.501Z" fill="black" fill-opacity="0.03"/></g><defs><filter id="filter0_f_83_4094" x="1082.46" y="-132.209" width="702.212" height="433.699" filterUnits="userSpaceOnUse" color-interpolation-filters="sRGB"><feFlood flood-opacity="0" result="BackgroundImageFix"/><feBlend mode="normal" in="SourceGraphic" in2="BackgroundImageFix" result="shape"/><feGaussianBlur stdDeviation="63" result="effect1_foregroundBlur_83_4094"/></filter><filter id="filter1_f_83_4094" x="-208.451" y="-245.892" width="737.877" height="646.537" filterUnits="userSpaceOnUse" color-interpolation-filters="sRGB"><feFlood flood-opacity="0" result="BackgroundImageFix"/><feBlend mode="normal" in="SourceGraphic" in2="BackgroundImageFix" result="shape"/><feGaussianBlur stdDeviation="83.5" result="effect1_foregroundBlur_83_4094"/></filter><filter id="filter2_f_83_4094" x="170.906" y="-92.9511" width="1109.92" height="414.188" filterUnits="userSpaceOnUse" color-interpolation-filters="sRGB"><feFlood flood-opacity="0" result="BackgroundImageFix"/><feBlend mode="normal" in="SourceGraphic" in2="BackgroundImageFix" result="shape"/><feGaussianBlur stdDeviation="57" result="effect1_foregroundBlur_83_4094"/></filter><filter id="filter3_f_83_4094" x="-55.9231" y="-184.734" width="502.581" height="351.811" filterUnits="userSpaceOnUse" color-interpolation-filters="sRGB"><feFlood flood-opacity="0" result="BackgroundImageFix"/><feBlend mode="normal" in="SourceGraphic" in2="BackgroundImageFix" result="shape"/><feGaussianBlur stdDeviation="9" result="effect1_foregroundBlur_83_4094"/></filter><radialGradient id="paint0_radial_83_4094" cx="0" cy="0" r="1" gradientUnits="userSpaceOnUse" gradientTransform="translate(1470.49 -59.7828) rotate(169.468) scale(1446.5 1392.49)"><stop stop-color="#203A35"/><stop offset="0.463542" stop-color="#1F3C35"/><stop offset="1" stop-color="#283D38"/></radialGradient><linearGradient id="paint1_linear_83_4094" x1="732.641" y1="116.435" x2="322.687" y2="182.318" gradientUnits="userSpaceOnUse"><stop offset="0.338945" stop-color="#6B3D3D"/><stop offset="1" stop-opacity="0"/></linearGradient><radialGradient id="paint2_radial_83_4094" cx="0" cy="0" r="1" gradientUnits="userSpaceOnUse" gradientTransform="translate(-0.710787 118.755) rotate(0.209929) scale(390.376 256.75)"><stop stop-color="white" stop-opacity="0.54"/><stop offset="1" stop-color="white" stop-opacity="0"/></radialGradient></defs></svg>