<svg xmlns="http://www.w3.org/2000/svg" viewBox="0 0 98.81 32.75" preserveAspectRatio="none"><title>green-button-border-active</title><path d="M98.81,23.11a9.13,9.13,0,0,1-1.49-2.5,11.33,11.33,0,0,1-.7-2.9,19,19,0,0,1-.07-3.21,32.83,32.83,0,0,1,.36-3.3c.17-1.09.38-2.15.6-3.16S98,6,98.18,5.2A1,1,0,0,0,98.34,5c-.79-1.31.38-2.7-.74-3.56h-.52c-1.42-.07-3-.08-4.52-.17A23.45,23.45,0,0,1,88,.51c-.19,0-.39-.48-.59-.5h-.6C85.89,0,85,.3,84.1.23,82.88.16,81.67.3,80.45.31S78,.55,76.75.65c-.91.08-1.81.22-2.68.31-.64.06-1.26.15-1.88.21l-2.73.21c-1.35.11-2.69.22-4,.28H63.27c-1.06,0-2.13,0-3.25-.08l-2.75-.11a17.37,17.37,0,0,1-2.49-.12,41.48,41.48,0,0,0-4.37-.21h-2a34.47,34.47,0,0,0-4.15,0H41.67l-3.92.16-3.23.07-2.14.06c-.8,0-1.58.1-2.36.14h-.47a12.8,12.8,0,0,1-2,.06l-1.7.09h-2l-4.36-.07c-.8,0-1.59,0-2.38.07l-2.42.2c-.79.06-1.33.12-2,.13-1.47,0-2.94.06-4.37.17a32.79,32.79,0,0,1-4,0,2.35,2.35,0,0,0-.51,0l-.3.06a2.31,2.31,0,0,0-1.58.11.64.64,0,0,0-.25.11,2.78,2.78,0,0,0-.38.92A7.74,7.74,0,0,1,.88,6.06,18.41,18.41,0,0,0,.26,7.85v.1l1.15.7L0,8.79A1.25,1.25,0,0,1,0,9v.59l2.09.84v.17L.27,10.47v.32c0,.35.42.7.42,1a8.21,8.21,0,0,1-.31,2,2.22,2.22,0,0,0,.44,2.06,2.75,2.75,0,0,1,.5.63A11.64,11.64,0,0,1,2,18.68a25.54,25.54,0,0,1,.09,3v1.73q-.09,1.65-.2,3.26a.71.71,0,0,1-.13.28,3.62,3.62,0,0,0-.49,1.2C1.13,29.08,1,30,.82,31c-.08.49.48.73,1.69.81l.49.09a7.93,7.93,0,0,0,2,0c.24,0,.49-.07.74-.11a44.34,44.34,0,0,0,5,.23l.2-.22H11q2.11.39,4.31.68,1.82.18,3.75.24c1.08,0,2.17.07,3.26.07a15.22,15.22,0,0,0,1.79-.07c.59-.07,1-.07,1.51-.09.86,0,1.72,0,2.58,0s1.85.08,2.78.09,1.87,0,2.81-.06c1.71-.09,3.47-.06,5.22-.06a33.17,33.17,0,0,0,4-.21,15.72,15.72,0,0,1,2.12-.17c1.94,0,3.88.08,5.82.17,1.41.06,2.81.18,4.21.29a26.27,26.27,0,0,0,4.36-.12c.53,0,1.06-.1,1.6-.13l3.92-.15a11.16,11.16,0,0,0,1.45-.13l2.85-.32a2.21,2.21,0,0,1,.46,0c1.55.19,3.07.42,4.63.58,1.3.12,2.62.19,4,.23h2.46c1.24,0,2.47-.12,3.71-.2l1-.18c1-.12,1.91-.24,2.87-.33h.33q4.15.09,8.29.25c.08-.38.13-.76.19-1.14a1.07,1.07,0,0,0,.24-.3c.06-.2.12-.87.16-1.07a2.9,2.9,0,0,1-.16-.7c0-.78.06-1.55,0-2.33C98.78,25.87,97.6,23.85,98.81,23.11Z" style="fill:#19333c"/><path d="M95.45,6c-.75-1.2.35-2.46-.69-3.25h-.49c-1.34-.07-2.79-.07-4.25-.16a22.74,22.74,0,0,1-4.32-.6c-.18,0-.37-.44-.55-.46h-.56c-.84,0-1.68.3-2.52.24-1.15-.06-2.29.06-3.43.08s-2.34.21-3.49.31c-.86.07-1.7.2-2.52.28-.6.06-1.18.14-1.77.19l-2.57.19c-1.27.1-2.53.2-3.77.26H62.46c-1,0-2,0-3-.08l-2.59-.1a16.74,16.74,0,0,1-2.34-.11,40.31,40.31,0,0,0-4.11-.19H48.52a33.46,33.46,0,0,0-3.9,0H42.21l-3.69.14-3,.06-2,.06c-.75,0-1.48.09-2.22.13h-.45A12.41,12.41,0,0,1,29,3l-1.6.09H25.47L21.25,3C20.49,3,19.75,3,19,3s-1.53.12-2.28.18-1.25.11-1.89.12c-1.38,0-2.76.06-4.11.16a31.89,31.89,0,0,1-3.79,0,2.28,2.28,0,0,0-.48,0,3.62,3.62,0,0,1-1.15.13,1.31,1.31,0,0,0-.86.13,2.49,2.49,0,0,0-.45,1A6.86,6.86,0,0,1,3.74,7a16.46,16.46,0,0,0-.59,1.63v.09l1.08.64-1.29.14a1.1,1.1,0,0,1,0,.15v.53l2.4.94L3.17,11v.29c0,.32.39.64.4.94A7.26,7.26,0,0,1,3.28,14a2,2,0,0,0,.45,2,2.51,2.51,0,0,1,.47.58,10.34,10.34,0,0,1,.56,2,22.54,22.54,0,0,1,.08,2.74v.67a8.74,8.74,0,0,0,0,1.12c0,.28.24.56.24.85a4.12,4.12,0,0,1-.52,2.16,3.25,3.25,0,0,0-.46,1.09c-.14.85-.28,1.7-.43,2.58-.08.45.45.66,1.59.74l.5.06a7.7,7.7,0,0,0,1.92,0,13.81,13.81,0,0,1,1.54-.23H12a7.42,7.42,0,0,1,1.33.2q2,.36,4.06.62,1.71.16,3.53.22c1,0,2,.06,3.07.07a13.57,13.57,0,0,0,1.69-.07,12.16,12.16,0,0,1,1.42-.08h2.43c.81,0,1.74.08,2.62.08s1.76,0,2.64,0c1.61-.08,3.27-.06,4.91-.06a32.21,32.21,0,0,0,3.78-.19,15.25,15.25,0,0,1,2-.15c1.83,0,3.66.08,5.48.15,1.32.06,2.64.16,4,.27a25.51,25.51,0,0,0,4.1-.11c.49,0,1-.09,1.5-.12L64.26,31a12.06,12.06,0,0,0,1.36-.12l2.68-.29a2.14,2.14,0,0,1,.44,0c1.45.18,2.89.39,4.36.53q1.83.17,3.72.21h2.32c1.16,0,2.33-.11,3.5-.18l1-.16c.9-.11,1.79-.22,2.7-.3,1.29-.12,2.6-.21,3.89-.33a5.32,5.32,0,0,0,2.65-.67,1,1,0,0,1,.41-.07.31.31,0,0,1,.21.11,2.58,2.58,0,0,1,.12.38,1,1,0,0,0,.85-.12,1.14,1.14,0,0,0,.39-.41c.06-.18.11-.79.15-1a6.57,6.57,0,0,1-.2-2.42H93c.59,0,1.18-1,1.78-.3,1.17-.71,0-2.61,1.15-3.31a8.28,8.28,0,0,1-1.4-2.28,10.07,10.07,0,0,1-.66-2.64,16.77,16.77,0,0,1-.07-2.92,29,29,0,0,1,.34-3c.16-1,.36-2,.57-2.88s.43-1.79.63-2.59A.87.87,0,0,0,95.45,6Z" style="fill:#29663a"/><path d="M89.38,24.09A.43.43,0,0,1,89,24c-.13-.16.13-.35.34-.41a20.42,20.42,0,0,1,4.22-.85l.67-.06a8.1,8.1,0,0,0-.37-3.77c-1.29-5-.54-10.17.2-15.23-4-.09-8-.19-12-.23C80.64,3.83,79,4,77.91,4.88a2.86,2.86,0,0,1-.72.5,2.36,2.36,0,0,1-1,.06L74.5,5.28c-4.66,4.72-10.68,8.42-16.59,12a9.56,9.56,0,0,1-3.12,1.41,10.3,10.3,0,0,1-3.89-.26q-18.66-3.69-37.17-7.94c-3-.69-6-1.38-9-1.9,0,.47.07.93.09,1.4Q6.37,10,8,10a3,3,0,0,1-1.24,1.87,10.59,10.59,0,0,0-1.52,1c-.13.13-.23.27-.35.4a135.66,135.66,0,0,1-.32,14.58A2.09,2.09,0,0,0,5,29.6a2.69,2.69,0,0,0,1.35.53,36.57,36.57,0,0,0,6.76.5c.68-.73,1.36-1.45,2.05-2.17a.72.72,0,0,1,.34-.23c.28-.07.53.16.68.38.47.66.88,1.5,1.75,1.65a.76.76,0,0,1,.6.24c5.65-.15,11.31-.15,17-.14H60.17a6,6,0,0,0-.77-1c-.38-.42-.86-.86-.81-1.4l2.24,1a9.48,9.48,0,0,0,1.3.53c.32.09.65.16,1,.27a3.38,3.38,0,0,1,1,.62h1.59c9.57,0,19.15,0,28.72.41a20.83,20.83,0,0,0,.34-6.31l-1.53-.34C92,24.09,90.67,24.07,89.38,24.09Z" style="fill:#377f4b"/><path d="M6.77,11.84A3,3,0,0,0,8,10H4.74c.06,1.08.46,1.76.5,2.84A10.59,10.59,0,0,1,6.77,11.84ZM17.93,30.26c-.87-.15-1.28-1-1.75-1.65a.73.73,0,0,0-.68-.38.72.72,0,0,0-.34.23c-.69.72-1,1-1.69,1.78,1.56,0,2.77.33,4.33.28h.73C18.45,30.35,18.15,30.3,17.93,30.26Zm44.2-.75a9.48,9.48,0,0,1-1.3-.53l-2.24-1a2.28,2.28,0,0,0,.81,1.4,2.75,2.75,0,0,1,.55.68c1.31,0,2.83.38,4.14.38a3.38,3.38,0,0,0-1-.62A6.71,6.71,0,0,0,62.13,29.51Zm32.14-6.84-.67.06a20.42,20.42,0,0,0-4.22.85c-.21.07-.47.25-.34.41a.43.43,0,0,0,.34.09c1.29,0,2.57,0,3.86.06A2.44,2.44,0,0,0,94.27,22.67ZM76.16,3.42c-.55.64-1.12,1.25-1.72,1.86l1.69.16a2.36,2.36,0,0,0,1-.06,2.86,2.86,0,0,0,.72-.5C79,4,80.64,3.83,82.1,3.45Q79.13,3.41,76.16,3.42Z" style="fill:#2c6a3e"/><path d="M50.84,18.44a10.3,10.3,0,0,0,3.89.26,9.56,9.56,0,0,0,3.12-1.41c5.91-3.6,11.93-7.3,16.59-12L72.8,5.13c-2.53-.24-5.06-.48-7.58-.81C64.15,4.17,63.07,4,62,3.84A44.46,44.46,0,0,1,56.33,4c-2-.13-3.93-.54-5.91-.66a61,61,0,0,0-7.63.34l-1.68.09c-.37.47-.15,1.19-.59,1.62a1.36,1.36,0,0,1-1.58,0,3.09,3.09,0,0,1-1-1.23l-.19-.35c-1.86,0-3.72,0-5.58-.1L32,3.83,29.91,5.14a5.11,5.11,0,0,1,.73-1.51A95.68,95.68,0,0,0,15.51,4c-2.62.34-5.35.88-7.84.1C6.56,3.73,5.12,3.2,4.37,4l-.07.29c.14,1.44.25,2.88.35,4.31,3,.52,6,1.21,9,1.9Q32.18,14.75,50.84,18.44Z" style="fill:#3a8752"/><path d="M38,4.13a3.06,3.06,0,0,0,1,1.23,1.36,1.36,0,0,0,1.58,0c.34-.33.28-1.24.41-1.24Zm-7.29-.49a5.11,5.11,0,0,0-.73,1.51L31.67,4A3,3,0,0,1,30.66,3.64Z" style="fill:#2c6a3e"/><path d="M62.43,3.81H62c1.07.17,2.15.33,3.23.47,2.52.33,5,.57,7.58.81l1.64.16C75,4.65,75.62,4,76.17,3.39,71.58,3.43,67,3.54,62.43,3.81Z" style="fill:#327548"/></svg>