<svg aria-hidden="true" role="presentation" xmlns="http://www.w3.org/2000/svg" width="21.82046" height="23.91001" viewBox="0 0 21.82046 23.91001"><g><g><path d="M2.655,21.95818,2.51354,20.6281l-.38011-4.13373-.46335-.72145L0,16.48114l.06358,5.61359L2.00867,23.91l18.0281-.2454.36278-.54873,1.42091-.55026-.88223-6.33786-.47109-.925-1.05566.85621.42194.99749-.36368,4.64Zm7.83654-9.82992L7.171,9.38651,6.13235,9.598l-.00329.79169L9.834,15.65218l2.337-.055,4.32725-4.55852-.13162-1.915-1.34318.516-2.73573,1.60259-.37685,1.109.14914-.95325L12.07975.77832,11.01963,0l-.624.79451.13629,2.334Z" style="fill: rgb(255, 255, 255);"></path></g></g></svg>