<svg width="100" height="100" viewBox="0 0 100 100" fill="none" xmlns="http://www.w3.org/2000/svg"><path d="M49.8098 36.8828C54.2985 36.8828 54.8296 36.8993 56.6026 36.9761C58.2414 37.0473 59.1315 37.3077 59.7241 37.5268C60.5088 37.817 61.0686 38.1638 61.6571 38.7233C62.2457 39.2835 62.61 39.8163 62.9143 40.5632C63.1445 41.1272 63.418 41.9744 63.4928 43.5343C63.5735 45.2211 63.5909 45.7273 63.5909 49.9997C63.5909 54.2721 63.5735 54.7776 63.4928 56.4651C63.418 58.0249 63.1445 58.8722 62.9143 59.4361C62.6093 60.183 62.245 60.7159 61.6571 61.2761C61.0686 61.8362 60.5088 62.183 59.7241 62.4726C59.1315 62.6917 58.2414 62.9521 56.6026 63.0232C54.8303 63.1001 54.2985 63.1166 49.8098 63.1166C45.3211 63.1166 44.7893 63.1001 43.017 63.0232C41.3782 62.9521 40.4881 62.6917 39.8955 62.4726C39.1108 62.1824 38.551 61.8356 37.9625 61.2761C37.3739 60.7159 37.0096 60.183 36.7053 59.4361C36.4751 58.8722 36.2015 58.0249 36.1268 56.4651C36.0461 54.7782 36.0287 54.2721 36.0287 49.9997C36.0287 45.7273 36.0461 45.2218 36.1268 43.5343C36.2015 41.9744 36.4751 41.1272 36.7053 40.5632C37.0103 39.8163 37.3746 39.2835 37.9625 38.7233C38.551 38.1631 39.1108 37.8164 39.8955 37.5268C40.4881 37.3077 41.3782 37.0473 43.017 36.9761C44.7899 36.8993 45.3211 36.8828 49.8098 36.8828ZM49.8098 34C45.2444 34 44.6718 34.0184 42.8789 34.0965C41.0899 34.174 39.8682 34.4446 38.7986 34.8403C37.6929 35.2493 36.7554 35.7961 35.8212 36.6859C34.887 37.575 34.3118 38.4674 33.8828 39.5191C33.4671 40.5372 33.1828 41.7001 33.1014 43.4028C33.0194 45.1093 33 45.6543 33 49.9997C33 54.3451 33.0194 54.89 33.1014 56.5966C33.1828 58.2993 33.4671 59.4622 33.8828 60.4803C34.3125 61.5326 34.887 62.425 35.8219 63.3141C36.7567 64.2039 37.6936 64.7507 38.7992 65.1598C39.8682 65.5554 41.0906 65.826 42.8796 65.9035C44.6725 65.9816 45.245 66 49.8105 66C54.3759 66 54.9484 65.9816 56.7414 65.9035C58.5303 65.826 59.7527 65.5554 60.8217 65.1598C61.9274 64.7507 62.8649 64.2039 63.7991 63.3141C64.7339 62.4243 65.3084 61.5326 65.7381 60.4803C66.1538 59.4628 66.4381 58.2993 66.5195 56.5966C66.6016 54.89 66.6209 54.3451 66.6209 49.9997C66.6209 45.6543 66.6016 45.1093 66.5195 43.4028C66.4381 41.7001 66.1538 40.5365 65.7381 39.5191C65.3084 38.4667 64.7339 37.5744 63.7991 36.6852C62.8642 35.7955 61.9274 35.2486 60.8217 34.8396C59.7514 34.4446 58.5296 34.174 56.7407 34.0965C54.9478 34.0184 54.3752 34 49.8098 34Z" fill="white"/><path d="M49.81 41.7839C45.0424 41.7839 41.1782 45.4625 41.1782 49.9997C41.1782 54.5369 45.043 58.2155 49.81 58.2155C54.577 58.2155 58.4418 54.5369 58.4418 49.9997C58.4418 45.4625 54.5776 41.7839 49.81 41.7839ZM49.81 55.3327C46.7152 55.3327 44.2069 52.9447 44.2069 49.9997C44.2069 47.0541 46.7159 44.6667 49.81 44.6667C52.9041 44.6667 55.413 47.0547 55.413 49.9997C55.413 52.9454 52.9048 55.3327 49.81 55.3327Z" fill="white"/><path d="M58.7833 43.3787C59.8973 43.3787 60.8004 42.5191 60.8004 41.4588C60.8004 40.3984 59.8973 39.5388 58.7833 39.5388C57.6692 39.5388 56.7661 40.3984 56.7661 41.4588C56.7661 42.5191 57.6692 43.3787 58.7833 43.3787Z" fill="white"/></svg>