<svg xmlns="http://www.w3.org/2000/svg"  preserveAspectRatio="none" viewBox="0 0 206.71 71.02"><path fill="#173734" d="M39.75 68.89c5.08-.65 31.15 3.56 37.5 1.62s24.15-3.51 31.46-3.76 42-1.74 51.79-1.91 31.1-4.24 31.1-4.24c1.37-.4 2.71-1 4.08-1.37a7.32 7.32 0 0 0 4.17-3.46c1.45-2.33 3-4.65 4.44-7a3.06 3.06 0 0 0 .49-1.41c.14-5.39.62-10.78.78-16.17 0-1.31 1.15-2.61 1.15-3.91v-4.64c0-.18-1.28-.36-1.28-.54-.07-3.27-2.58-5.5-5.06-7.26-5.56-3.95-11.09-7.93-16.72-11.76A20 20 0 0 0 178.87 1a3.66 3.66 0 0 0-2.22 0l-6.22.1h-4.33s-7.5-.31-19.58-.85-24.15-.1-31.46.26-7.94 3.84-17.16 2.22S89 1.44 74.71.51s-35.89 1-35.89 1L36.34 1a3.69 3.69 0 0 0-2.23 0c-3.77 1.22-7.51 2.54-11.26 3.85-.63.22 1.63 4 1.15 4.22-.69.27-5.86-2.47-6.56-2.27-3.59 1-5.8 3.92-8.36 6.36-3.6 3.44-6 7.8-8.6 11.94a5.72 5.72 0 0 0-.47 3c.29 7.68 2.23 15.12 4 22.51a11.27 11.27 0 0 0 2.62 4.13c2 2.34 4.19 4.83 6.4 7 .94.92 2.24 1.91 3.26 2.77 2 1.66 4.32 2.53 6.67 4.38h.8c1 0 2-1.67 3.07-1.84.04.03 7.84 2.49 12.92 1.84zm-.93-61.07s21.59-1.9 35.89-1 14 .61 23.19 2.23 9.85-1.86 17.16-2.23 19.39-.79 31.46-.25 25.06.45 25.06.45h5.72a4.45 4.45 0 0 1 4 .77c4.69 3.2 9.49 6.23 14.27 9.29 1.24.79 2.58 1.41 3.82 2.2a1.48 1.48 0 0 1 .44 1.05c.05 1.18 0 2.37 0 3.56h.11c-.81 6.44-1.4 12.93-2.53 19.32-.58 3.31-2.1 6.46-3.28 9.65a1.8 1.8 0 0 1-1.19.78c-1.51.35-3 .57-4.56.88-2 .41-4.11.79-6.14 1.28 0 0-26.57 3.65-35.79 3.65s-39.08 1.94-48.62 2.27-37.81-2.59-53.07 0-14.74-3.23-14.74-3.23c-.31.08-4.22 6.19-4.72 6.29s-.3-4.78-.65-4.86a6.62 6.62 0 0 1-2.1-.86c-4-2.3-7.43-5.4-10.88-8.44-1.13-1-2.31-1.94-3.34-3-.38-.39-.39-1.14-.56-1.73a9.93 9.93 0 0 1-.44-1.66C7.17 42.64 7 41.08 7 39.51Q6.74 34 6.6 28.44A2.78 2.78 0 0 1 7.1 27c1.38-2.14 2.81-4.25 4.23-6.37A41.14 41.14 0 0 1 13.81 17a12.57 12.57 0 0 1 3-2.84c5.62-3.27 11.72-5.32 17.92-7.13a4.46 4.46 0 0 1 4 .77" /></svg>