<svg xmlns="http://www.w3.org/2000/svg" viewBox="0 0 206.71 71.02" preserveAspectRatio="none"> <path fill="#578c85" d="M39.75 68.89c5.08-.65 31.15 3.56 37.5 1.62s24.15-3.51 31.46-3.76 42-1.74 51.79-1.91 31.1-4.24 31.1-4.24c1.37-.4 2.71-1 4.08-1.37a7.32 7.32 0 0 0 4.17-3.46c1.45-2.33 3-4.65 4.44-7a3.06 3.06 0 0 0 .49-1.41c.14-5.39.62-10.78.78-16.17 0-1.31 1.15-2.61 1.15-3.91v-4.64c0-.18-1.28-.36-1.28-.54-.07-3.27-2.58-5.5-5.06-7.26-5.56-3.95-11.09-7.93-16.72-11.76A20 20 0 0 0 178.87 1a3.66 3.66 0 0 0-2.22 0l-6.22.1h-4.33s-7.5-.31-19.58-.85-24.15-.1-31.46.26-7.94 3.84-17.16 2.22S89 1.44 74.71.51s-35.89 1-35.89 1L36.34 1a3.69 3.69 0 0 0-2.23 0c-3.77 1.22-7.51 2.54-11.26 3.85-.63.22 1.63 4 1.15 4.22-.69.27-5.86-2.47-6.56-2.27-3.59 1-5.8 3.92-8.36 6.36-3.6 3.44-6 7.8-8.6 11.94a5.72 5.72 0 0 0-.47 3c.29 7.68 2.23 15.12 4 22.51a11.27 11.27 0 0 0 2.62 4.13c2 2.34 4.19 4.83 6.4 7 .94.92 2.24 1.91 3.26 2.77 2 1.66 4.32 2.53 6.67 4.38h.8c1 0 2-1.67 3.07-1.84.04.03 7.84 2.49 12.92 1.84z" /></svg>