<svg aria-hidden="true" role="presentation" xmlns="http://www.w3.org/2000/svg" viewBox="0 0 60 60.1"><path d="M57.74 40.17a9.39 9.39 0 0 1-5.32-1.35 8 8 0 0 1-1.05-.82A11.87 11.87 0 0 0 50 37a7 7 0 0 0-1.38-.45L48.29 34l-1.86-1 1.95-.48c.74-.81.43-2.16 1.23-3 .22-1.76-.57-3.24-1.19-4.9.39-.15.84-.35 1.31-.5l6.4-2.1a5.43 5.43 0 0 1 2.49-.38c.41-.39.88-.84 1.39-1.28l-.37-.93c-.31-.23-.4-1-.41-1.06-.12-.54-.33 0-.44-1-1.11 0-1.61.07-2.64.07-.53 0-1-.48-1.6-.43s-1.12.68-1.63 1a14.2 14.2 0 0 0-1.75 1.46l-3.67 1.39c-.81-1-1.65-2.14-2.41-3.29a24.89 24.89 0 0 0-3.09-4.2 2.63 2.63 0 0 1-2.11-.85c.83-1.16 1.65-2.28 2.44-3.43a19.73 19.73 0 0 1 2.91-3.82A8.05 8.05 0 0 0 46.31 4l.07-.58-1.27-.53c-.47-.47-1-1.71-1.61-1.71h-3.42c-.24 0-.49 1.4-.74 2s-.26 1.48-.47 2.17-.57 1-.72 1.58a5 5 0 0 1-.71 1.47 22.68 22.68 0 0 0-1.21 2.43 2.73 2.73 0 0 0-1.61-.49A5.7 5.7 0 0 1 32 10.1a.41.41 0 0 0-.36 0c-.53.52-1.23.13-1.85.39a20.31 20.31 0 0 1-3 .86 4.39 4.39 0 0 1-1 0 37.23 37.23 0 0 0-2.28-5.77l.61-.61c-.43-1.5-.39-4-.83-5l-1.56.38a4 4 0 0 0-1.66.54c-.89.54-1.51.47-2.49 1 .05.19.52 1.46.62 1.66.44.9.94 1.78 1.34 2.7a35.18 35.18 0 0 1 2 5.3 9.73 9.73 0 0 0 .35.94 4.94 4.94 0 0 0-3.3 1.64c-1.68 1.62-3.31 3.3-5 5a4 4 0 0 1-.64-.26c-2.2-1.35-4.58-2.45-6.29-4.58l-3.16.25c-.29.55-1.48 2.17-1.79 2.77l-.09.86c.09.23-.32.42-.19.75a11.74 11.74 0 0 0 3.69.4 9.39 9.39 0 0 1 3.26 1.28c.7.52 1.39 1.07 2.1 1.59a1.62 1.62 0 0 0 .82.41c.76 0 .9.65.93 1a12.32 12.32 0 0 0 .35 1.87 3.32 3.32 0 0 0 .83.35c.4.05.55.27.67.7l-1.17.09-.82.49A9.75 9.75 0 0 1 11 30.33a4.71 4.71 0 0 0 .47 2.22c.21.74.42 1.46.71 2.3-3.46 1-7 2.51-10.85 3.23-.2.28-1.32.81-1.32 1.33v.5c0 .16.77.54.87.85s.52.75.62 1.16h1.81a3.48 3.48 0 0 1 2.53.58A12.38 12.38 0 0 0 8.3 41a7.42 7.42 0 0 1 2.16-1.43c1-.31 1.9-.66 2.88-1 1.94 2.37 3.28 5.12 5.11 7.15l2.54 1c-1.15 1.62-2.3 3.2-3.4 4.82a15.57 15.57 0 0 1-1.51 2c-.64.68-1.23 1.4-1.89 2.16.16.18.29.44.43.44.91 0 1.42.7 2 1.26l.86.85 3.29-.36a4.61 4.61 0 0 1 .58-1.54c.43-.5-.09-1.18.47-1.57a8.64 8.64 0 0 1 1.1-3.05c.46-1 1-2 1.54-3.06l1.26.47a1.82 1.82 0 0 1 1.58-.1 5.88 5.88 0 0 0 3 0 9.74 9.74 0 0 0 2.9-.86 3.63 3.63 0 0 0 1.74-.32 35.13 35.13 0 0 0 1.9 5.14 1.35 1.35 0 0 1 .1 1.37 2.41 2.41 0 0 0 0 1.47c.24.94.58 2 .86 2.89v.74l.82.56c.12-1 .2-.63.36-.71 1.16-.61 2.9-.6 4.06-1.2.14-.07.23-.24.32-.34-.72-1.51-2.14-4.4-2.79-6s-1.11-3.17-1.68-4.78a9.1 9.1 0 0 0 2.67-1.33c.27-.24.58-.43.84-.69 1.63-1.61 3.24-3.23 4.87-4.86 1.56.94 3.11 1.84 4.62 2.8a12.63 12.63 0 0 1 1.37 1.24c.42.37.86.71 1.27 1 .7-.45 1.42-.17 2.08-.31s.39-.25 1-.2a8.72 8.72 0 0 0 1.46-2.43c.35-.77.59-1.07.21-1.8a2.08 2.08 0 0 0-1.54-.25zM36.65 17.35a7 7 0 0 0 1.54.71 3.9 3.9 0 0 1 2.52 2c.59.89 1.23 1.74 1.88 2.65L35 26.14a6 6 0 0 0-1.92-1.49 36.65 36.65 0 0 0 1.44-3.48 31.43 31.43 0 0 1 2.13-3.82zm-2.81-1c-.61 1.55-1.21 3-1.76 4.47-.38 1-.67 2.06-1 3.08a.88.88 0 0 1-.08.1h-1.11a1 1 0 0 1-.07-.15c-.34-1.11-.7-2.22-1-3.34-.22-.91-.58-1.77-.83-2.67a5.27 5.27 0 0 1-.22-1.45c2.1-.53 4.07-.91 6.07-.02zm-13.4 3.45C21 19 22 18.91 23 18.26v-1.39a1.64 1.64 0 0 0 .41 1c.44 0 .61.09.77.59a21.73 21.73 0 0 0 .88 2.25c.6 1.34 1 2.72 1.59 4.12l-.71 1.14c-2.45-1.23-4.7-2.43-7.18-3.67.57-.91 1.17-1.7 1.68-2.48zm-3.65 11.57c.16-.91-.31-1.74-.29-2.64 0-.09-.15-.18-.22-.26a20.44 20.44 0 0 1 1.2-3.59c.47-.21 1 .18 1.58.41 1.35.57 2.66 1.23 4 1.83.49.22 1 .4 1.49.59-.49.66-.07 1.39-.27 2l.16.21v.46c-1.72.45-3.26 1.38-5 1.81a13.39 13.39 0 0 0-2.3 1.05c-.14-.67-.47-1.24-.35-1.87zM24.14 42l-2.6-1a23.9 23.9 0 0 1-3.35-4.46c2.53-1 4.89-2.2 7.34-3.18a6 6 0 0 0 2 1.79c-1.04 2.34-1.79 4.73-3.39 6.85zM32 43.18c-.39 0-.71.28-1.15.26-1-.05-2.08 0-3 0L27 43a2.56 2.56 0 0 1 .08-.57c.83-2.19 1.68-4.38 2.53-6.6a6.08 6.08 0 0 0 .77.05h.59l2.06 6.88a1.93 1.93 0 0 1-1.03.42zm8.54-3.54c-.58.82-1.58 1-2.46 1.6l.35 1.33-.15.08-.38-.59-.38-.59-.45.25-2.86-7.07a6 6 0 0 0 1.07-1.08l6.94 3.61c-.65.87-1.22 1.67-1.73 2.46zm2.74-5c-2.42-.61-4.44-2.17-6.91-2.86a5.74 5.74 0 0 0 .25-1.2 3.49 3.49 0 0 0-.13-.83q0-.29-.05-.58c2.21-1.16 4.68-1.77 7.06-2.83l.41.44a5.34 5.34 0 0 1 0 .93 5.24 5.24 0 0 0 .24 2.29 2 2 0 0 1 0 1.8 5.18 5.18 0 0 1-.92 2.83z" fill="#f1eee5"/></svg>