<svg xmlns="http://www.w3.org/2000/svg" preserveAspectRatio="none" viewBox="0 0 1.43 42.82"><defs><style>.cls-1{fill:gray}</style></defs><g><path class="cls-1" d="M.9 16.93s-.12 0-.12-.05-.12-.4.11-.6S1 16.07 1 16a1.26 1.26 0 0 0 .15-.66v-1.52c0-.25.1-.49.12-.74s0-.51 0-.76a1.11 1.11 0 0 0-.16-.45.53.53 0 0 1 0-.65v-.14a1.82 1.82 0 0 1 0-.57 8.41 8.41 0 0 0 .12-2.24c.24-.3.11-.61.14-.91a.62.62 0 0 0-.25-.6A.92.92 0 0 1 1 6c.11-.11.22-.22.34-.32a1.12 1.12 0 0 1-.08-.26V4.11a4.05 4.05 0 0 0-.12-.47c0-.16.07-.1.11-.16-.26-.18.06-.39-.15-.56s.17-.37 0-.55l-.18-.06a.46.46 0 0 0-.2.46v1.45c0 .2.18.39.15.6s-.21.4-.16.62a2.08 2.08 0 0 1 0 .61s-.13.09-.12.13-.12.15-.13.22.09.14.12.2a.54.54 0 0 1 0 .18v4.49c0 .39.15.77.14 1.16 0 .21-.19.41-.16.62a.91.91 0 0 1 0 .61 1.68 1.68 0 0 0-.11.77v.76c0 .25-.2.48-.13.72-.23.17-.11.35-.12.52s-.2.44-.15.67-.08.46 0 .68a1.6 1.6 0 0 1 .11.72 1.54 1.54 0 0 1 0 .74 2.81 2.81 0 0 0-.08 1.6 15.21 15.21 0 0 1 .1 2.24v2.24c0 .11.09.23.12.35s0 .21.12.32 0 .18 0 .27a3.44 3.44 0 0 1 .14.59c0 .2-.09.4 0 .59a1.21 1.21 0 0 1 .1.65 1.06 1.06 0 0 1 0 .66c-.21.43 0 .87-.11 1.31.23.28.11.57.13.86a1.79 1.79 0 0 1 0 .86 3.64 3.64 0 0 0-.11 1.09V34c0 .06-.06.11-.1.16s-.3.31 0 .5a1 1 0 0 1 .13 1c-.12.14 0 .27 0 .4a.64.64 0 0 1 0 .54 4.26 4.26 0 0 0-.13 1.28c0 .11-.18.21-.13.33s-.08.22.09.33 0 .21.16.32.08.2 0 .29a.21.21 0 0 0 0 .33c.13.11.1.18 0 .24-.29.25-.09.49.08.72s.12.19 0 .25-.08.27-.11.4a1.37 1.37 0 0 0 0 .35c0 .12 0 .2.2.28l.2-.14v-.78c0-.08-.09-.16.12-.23v-.12c0-.04-.08 0-.08-.08a1.11 1.11 0 0 0-.26-.62v-.15c.22-.17.11-.35.12-.53v-1.13c0-.38.23-.65.14-1 .2-.11.07-.24.25-.36s0-.18 0-.27.08-.31 0-.46c-.21-.36 0-.73-.14-1.09A3.42 3.42 0 0 1 1 33.7a3.26 3.26 0 0 1 0-1.08c.14-.45 0-.91.14-1.36a5.52 5.52 0 0 0 .1-1.57 4.77 4.77 0 0 0 0-1.6c-.05-.42-.09-.85-.1-1.28 0-.21.19-.41.15-.62a1 1 0 0 1 0-.64 3.05 3.05 0 0 0 .11-1.31 7.27 7.27 0 0 0 0-1.32c0-.18-.21-.35-.33-.52a1.67 1.67 0 0 0-.31-.4v-.05c0-.05.21-.24.09-.39a.47.47 0 0 1-.08-.38 1.63 1.63 0 0 0 .13-.69c.25-.19.1-.4.12-.59a.83.83 0 0 0 0-.62c-.11-.19 0-.38-.12-.57-.23-.37-.05-.74-.12-1.11 0-.06.07-.13-.1-.18a.08.08 0 0 1 0-.09 1.34 1.34 0 0 1 .22-.4zM1 .49a.55.55 0 0 1-.3.57c-.07 0-.06.11-.06.17v.56l.24.07h.09a.19.19 0 0 1 .12-.24c0-.08-.13-.16-.08-.23s.12-.11.12-.17V.53zM.68 41.85v.9l.18.07a1 1 0 0 0 0-.48c.04-.16.14-.34-.18-.49z"/><path class="cls-1" d="M1 .5l.2-.42L1 0a.26.26 0 0 0-.19.11A.32.32 0 0 0 1 .5z"/></g></svg>