<svg xmlns="http://www.w3.org/2000/svg" preserveAspectRatio="none" viewBox="0 0 196.57 2.02"><defs><style>.cls-1{fill:gray}</style></defs><g><path class="cls-1" d="M77.72 1.22c-.06 0-.14-.16-.22-.16a10.42 10.42 0 0 0-2.73.15 9.33 9.33 0 0 1-1.49.18 21.52 21.52 0 0 1-3 .22h-6.82c-1.14 0-2.27.15-3.41.18s-2.33 0-3.49 0a10.09 10.09 0 0 1-2.05-.18 6.9 6.9 0 0 0-3 0 3.75 3.75 0 0 1-.67 0 22.55 22.55 0 0 0-2.6 0c-3.42.33-6.86.1-10.28.17a20.36 20.36 0 0 1-4.2.19A7.2 7.2 0 0 1 31 1.62a11.43 11.43 0 0 0-3.5-.21 13.3 13.3 0 0 0-1.5.52c-.43 0-.81-.12-1.19-.12h-6c-.72 0-1.44-.13-2.17-.17a2.52 2.52 0 0 0-.72.17c-.81-.38-1.82.08-2.56-.23-.93-.39-1.7.25-2.54 0l-.29-.26a5.2 5.2 0 0 1 2.14-.27h6.66c.92 0 1.79.26 2.73.22A20.69 20.69 0 0 1 25 1c.93.07 1.88 0 2.82 0 .19 0 .4-.19.58-.17.39 0 .69-.18 1-.19a7.94 7.94 0 0 1 .93.17h21.43c1.78 0 3.54.21 5.32.2 1 0 1.88-.26 2.84-.22a13.29 13.29 0 0 0 2.82 0 20.7 20.7 0 0 1 3.52-.12h3.5A27.08 27.08 0 0 1 73 .48 6 6 0 0 1 75.39.3c1 0 2-.28 3.06-.21s2.14-.11 3.16 0a25.79 25.79 0 0 0 3.29.15 23.83 23.83 0 0 0 3.38 0 39.34 39.34 0 0 1 7.36-.12c3.43.19 6.86.1 10.29.13s6.84 0 10.26 0c.54 0 1.07.13 1.6.18a5 5 0 0 1 1.5.16 2.84 2.84 0 0 0 1.23 0 22.79 22.79 0 0 1 2.73.2 13.43 13.43 0 0 1 2.69 0 18.79 18.79 0 0 0 3 .15 16.7 16.7 0 0 0 3 0 52.27 52.27 0 0 1 6-.16 17.83 17.83 0 0 0 4 .18 32.37 32.37 0 0 0 3.94 0 49 49 0 0 1 5-.16H156a3.43 3.43 0 0 0 .71-.14 3.51 3.51 0 0 1 2.33 0 13.88 13.88 0 0 0 4.5.19 4.85 4.85 0 0 1 1.86 0 10.21 10.21 0 0 0 2.47 0 54.73 54.73 0 0 1 5.83-.23 7.49 7.49 0 0 1 1.49-.18c.5.07 1-.12 1.52.12s1 0 1.48.23a2.1 2.1 0 0 0 1.31 0 2.26 2.26 0 0 1 1.54 0 1.87 1.87 0 0 0 1.1 0 5.64 5.64 0 0 1 3.28.11 2.44 2.44 0 0 0 1.17.07 5.43 5.43 0 0 1 1.84-.16H190a2.42 2.42 0 0 1 1.32.29l-.65.29h-3.61c-.35 0-.74-.13-1 .17-.07.06-.34 0-.52-.05a1.46 1.46 0 0 0-.39-.12A14.56 14.56 0 0 1 182.3 1a1 1 0 0 0-.55 0 6.69 6.69 0 0 1-2.4.17h-5.19c-1.51 0-3 .33-4.53.2-.49.28-1.11.1-1.64.35a3.57 3.57 0 0 1-1.22 0 12.74 12.74 0 0 1-2.14 0c-1.66-.3-3.35 0-5-.2a44.12 44.12 0 0 0-4.88-.15 41.7 41.7 0 0 0-5 0c-2.08.2-4.17 0-6.22.19-2.42.26-4.83.09-7.25.14s-4.9.16-7.32 0c-2-.09-4 0-5.88-.09-1 0-1.87.26-2.85.2a13 13 0 0 0-2.92 0 46.2 46.2 0 0 1-6 .15c-2 0-4.06.06-6.09 0a15.77 15.77 0 0 1-2.35-.47 17 17 0 0 1-2-.45.45.45 0 0 0-.23 0 4.5 4.5 0 0 1-1.79.12 5.36 5.36 0 0 0-1.74-.11 28.25 28.25 0 0 1-3.18.18 7.84 7.84 0 0 1-2.73.18 14.66 14.66 0 0 1-2.81 0c-.89-.16-1.78 0-2.62-.17a36.18 36.18 0 0 0-5.1-.18c-.28 0-.59.11-.84-.13a.61.61 0 0 0-.42 0 9.43 9.43 0 0 0-1.69.29zM2.24 1.43a5.62 5.62 0 0 0 2.63-.33c.18-.1.51 0 .77 0h2.58c.1 0 .21.14.32.23a.3.3 0 0 1-.13.09c-.41.06-.81-.09-1.09.2a3.15 3.15 0 0 0-1.06-.12 3.78 3.78 0 0 1-.82.12H2.32a1.64 1.64 0 0 0-.08-.19zM192.14.92h4.12c.08 0 .16.12.31.25a14.57 14.57 0 0 1-2.19.05 4.09 4.09 0 0 1-2.24-.3zM2.32 1.38l-1.95.24L0 1.35a1.83 1.83 0 0 1 .5-.26 2.37 2.37 0 0 1 1.82.29z"/></g></svg>