<svg xmlns="http://www.w3.org/2000/svg" viewBox="0 0 18.36 18.19"><path d="M12 0s.07.22.12.23c1 .12 2.1.22 3.05.32a8.62 8.62 0 0 1 3.13 4.26 4.14 4.14 0 0 0 0 .61 9.38 9.38 0 0 1-1 4.93 5.79 5.79 0 0 1-2.47 2.81 1 1 0 0 1-.5.2c-2-.07-4.09.34-5.93-1H7c0 .45 0 .84-.06 1.19-.93.52-2 .7-2.84 1.58a8.72 8.72 0 0 0-1.6 2.61l-2.5.45a5.77 5.77 0 0 1 0-1.45c.22-.78.31-1.67 1.28-2A5.71 5.71 0 0 0 4 12.15c.32-.48.47-1 1.2-.91.16 0 .36-.31.6-.53l-1-1.63a13.45 13.45 0 0 1 0-1.9 15 15 0 0 1 .7-3.64 5.46 5.46 0 0 1 3.42-3A6.3 6.3 0 0 1 10 .27c.36-.05.73 0 1.1 0s.55.16.56-.28zm4.79 8.12V4.57a7.36 7.36 0 0 0-3.53-3c-3.16-.36-5.75.55-7.08 4.11v3.83a11.32 11.32 0 0 1 1.74 1.7c.33.08.68.07.85.21a9.09 9.09 0 0 0 2.73 1.05 2.24 2.24 0 0 0 1.61-.2 6.21 6.21 0 0 0 3-2.84 4.64 4.64 0 0 1 .67-1.31z" fill="#444"/></svg>