<svg aria-hidden="true" role="presentation" xmlns="http://www.w3.org/2000/svg" viewBox="0 0 85.49 87.55"><path fill="#FFF" d="M41.29 40.15c-.95-.72-2-1.89-3.45-1.37a3.84 3.84 0 0 0-.84.3c-.34.24-.21.52-.13.8a2.8 2.8 0 0 1 .19 1l-.12.31a1.11 1.11 0 0 0 .12.49 2.1 2.1 0 0 0 .63.84c.33.3.62.64.94.95.57.54 1.34.84 1.9 1.38a7.78 7.78 0 0 1 .91 1.15.1.1 0 0 1 .05.08c.17.24.34.48.52.7.47.57 1 1.08 1.45 1.65a5.56 5.56 0 0 1 .63.62c.52.45 1 .91 1.52 1.38S46.45 51.54 47 52a8.31 8.31 0 0 1 .7.62c.21.25.52.27.76.47s.46.62.76.65.72-.31.94-.52a11.07 11.07 0 0 0 1.27-1.8c.19-.27.13-.3-.06-.52l-.76-.85c-.49-.55-.91-1.17-1.39-1.73s-1.05-1.06-1.54-1.63c-1-1.15-2-2.26-3.07-3.36a29 29 0 0 0-3.32-3.18z"></path><path fill="#FFF" d="M61.18 51.4l.13-1c0-.27.22-.79-.23-.5a2.31 2.31 0 0 0-.45.57 8.37 8.37 0 0 1-1.41 1.42c.16-.45.88-1.59 1.06-2s.24-.48 0-.67-.27-.14-.37-.23l-.39-.36c-.26-.24-.52-.49-.8-.71-1.26-1-2.27-2.3-3.43-3.45-.52-.52-.9-1-1.75-1.06a18.46 18.46 0 0 0-2.54 0c-.37 0-.76.09-1.12.1s-.71-.09-1.08-.09h-.3c0 .12-.06.23-.09.35a.19.19 0 0 1-.18.13c.16.32.31.64.46 1l.27.42a.12.12 0 0 1 .16 0c.16.29.34.58.51.87a7.34 7.34 0 0 1 .86.88l.27.27a.11.11 0 0 1 0 .1l.26.33a.13.13 0 0 1 0 .05 2.44 2.44 0 0 1 1 .06 2 2 0 0 1 .62.41 8.48 8.48 0 0 1 .69.52 7.58 7.58 0 0 1 .6.91 10.78 10.78 0 0 0 .76.91c.46.5 1 1 1.45 1.44.26.25.46.55.71.8s.55.43.8.69.48.32.59.62a3.29 3.29 0 0 1 0 1.15c0 .34 0 .69-.07 1s-.37.63-.77 1c-.6.52-1.05 1.49-1.75 1.82a5.53 5.53 0 0 1-1.86.2c-.77.08-1.56.32-2.33.42-.32 0-.63 0-.95.08s-.41-.08-.63-.32c-1-1-1.91-2.08-2.9-3.09-.29-.3-.58-.6-.9-.87a5.25 5.25 0 0 1-.93-.72.41.41 0 0 0-.11-.12v-.23a5.58 5.58 0 0 1 .17-.88l.16-.83-.19-.19h-.15c-.19-.26-.38-.52-.58-.77a.09.09 0 0 1-.07 0l-.27-.27-.05-.06-.27-.28-.64-.65-.14-.15h-.24a2.21 2.21 0 0 1-.46.12c-.08.8-.19 1.61-.3 2.42l-.42 3.2c0 .36-.29 1.11-.17 1.4s.47.21.65.34.6.46.92.67.39.45.68.52.29 0 .49.17l.48.43 1 .89c.6.56 1.15 1.18 1.77 1.72.21.19.56.66.92.56.18 0 .38-.32.52-.45a6.73 6.73 0 0 1 .71-.5c-.14.34-.44.78-.55 1.12a.69.69 0 0 0 .25.86c.52.52.93 1.13 1.44 1.66a1 1 0 0 1 .25.4c.05.14 0 .18.11.23s.9-.35 1.16-.47c.92-.4 1.85-.74 2.78-1.05a6.44 6.44 0 0 0 2.41-.92c.86-.8 1.71-1.6 2.55-2.42s1.53-1.52 2.29-2.29c.36-.36.57-.55.57-1v-1.4c-.06-1-.2-2-.27-3a21.22 21.22 0 0 0-.21-2.91z"></path><path fill="#FFF" d="M62.13 55c.25-.19 0-.53 0 0zM41.41 29.7a13.32 13.32 0 0 0-2.56 1.7c.05-.56.93-2 .95-2.59s-.79-.75-1.14-1a7.82 7.82 0 0 1-1.31-1.18c-.32-.36-.61-1.08-1.12-1.21a5.64 5.64 0 0 0-1.72.16l-1.84.2a7.73 7.73 0 0 1-1.87.22c-.2 0-.21-.15-.46 0a4.21 4.21 0 0 0-.67.66c-.48.51-.85 1.08-1.34 1.59s-.89.89-1.35 1.32a5.38 5.38 0 0 0-.86.83c-.14.25 0 .24 0 .44a9 9 0 0 1-.29 1.38 20.77 20.77 0 0 0-.36 3.38 9.11 9.11 0 0 0 .63 2.9 6.63 6.63 0 0 0 .34 1.27 6.1 6.1 0 0 0 1 1 11.46 11.46 0 0 0 1.24 1c.36.25 1.21-.51 1.7-.79-.08.19-.1.23.08.13-.15.35-1 1.17-.89 1.48a1.93 1.93 0 0 0 .48.77c.46.51 1 .88 1.5 1.38a16.59 16.59 0 0 1 1.05 1.65 8.13 8.13 0 0 0 1.4 1.44l.84.68c.21.16.46.47.74.55.53.14 1.59-.45 2.16-.76a11.79 11.79 0 0 1 1.86-.75v-.1a.56.56 0 0 1-.09-.21l-.08-.2a.14.14 0 0 1-.11 0 1.64 1.64 0 0 1-.26-.3l-.3-.36-.54-.65q-.53-.66-1-1.34l-.24.12c-.42.19-.54.22-.77-.05s-.38-.46-.55-.71a29.94 29.94 0 0 0-2.26-3.14 13 13 0 0 0-1.51-1.26c-.41-.32-1-.72-1.17-1.26a6 6 0 0 1 0-1c0-.27-.08-.53-.12-.8a11.09 11.09 0 0 1-.17-1.89c0-.38.09-.78.07-1.15s-.09-.35.16-.58.26-.14.37-.25a2.6 2.6 0 0 0 .26-.35 4.4 4.4 0 0 1 .82-.78 4 4 0 0 1 2.08-.5c.59-.07 1.29-.25 1.68.11.89.83 1.45 2 2.3 2.88a28.33 28.33 0 0 0 3 2.3 4.76 4.76 0 0 1 1.37 1.3 2.62 2.62 0 0 1 0 1.69l.09.09.35.28.27.21a2 2 0 0 1 .32.24l.35.27-.06-.06s0-.12.09-.09a2.71 2.71 0 0 0 .49.4h.13v.1a13.55 13.55 0 0 1 1.34 1.13l.12.1a2.3 2.3 0 0 0 .6-.9 11.84 11.84 0 0 0 .27-2.15c.09-.72.17-1.44.33-2.18.11-.53.55-1.61.17-2-.09-.09-.24-.08-.35-.14a2.06 2.06 0 0 1-.33-.29l-.65-.56a28.13 28.13 0 0 0-2.88-2.55l-.79-.5a3 3 0 0 1-.61-.65z"></path></svg>