<svg preserveAspectRatio="none" viewBox="0 0 105 22" fill="none" xmlns="http://www.w3.org/2000/svg"><path d="M103.327 1.601H2.61v19.072h100.717V1.6z" fill="#696763"/><path d="M42.748.69h-1.185c3.555 0 7.406 0 11.109.083C44.526.44 34.898.193 28.529.856c-.444-.415-8.294-.58-8.59-.498-1.63.083-3.259.083-5.036.166l3.555-.083-3.407.083c-2.074.083-4 .083-6.073.166h-7.85v6.965c0 2.073-.148 4.146-.148 6.219 0 1.741-.148 4.726-.148 7.96 4.295 0 8.739.083 12.738.083 3.407 0 6.369.083 8.442.083h2.963c-1.63 0-1.63 0-3.259-.083 4.147-.083 7.998-.166 11.553-.248-.592-.083-.74-.083-2.222-.166h1.926c1.63-.166 5.628-.166 7.406-.166-.445.083 1.036.083 2.37.083l-.445-.083h14.811c.593 0 1.037 0 1.333.083l4.148-.083c-.297.083 3.406.083 1.48.166 3.111-.083 6.222-.083 9.184-.166 4.888 0 10.072-.083 15.108-.083 5.332-.083 10.812-.083 16.144-.166V19.43v-1.41c0-.497-.148-1.078-.148-1.575-.148-1.078-.148-2.156-.148-3.483-.297-1.824-.445-4.478-.741-5.224 0-2.156-.296-2.985-.296-5.141-.148.58-.296-2.073-.444-.995-.297 1.41 0 1.492-.297 2.653-.148 2.737-.296 5.473-.296 8.21 0 2.404-.148 4.809-.148 7.213H82.591c-7.406 0-15.552.083-21.92.166-1.482 0-2.667-.083-4-.083-5.925 0-13.33.083-19.995.083h.296c-3.555 0-6.22-.083-9.628-.083 0 0-.444 0-.74.083-.296-.083-5.332 0-10.516.083-2.518 0-5.184.083-7.258.083H4.387c.148-1.741.296-3.483.296-5.224.148-1.907.296-3.814.148-5.473-.592-.746-.592-1.658-.74-2.238.148-.58-.149-.747 0-1.493.444-1.907.148-2.985 0-2.073V2.35h3.258c1.185 0 2.222-.084 3.407-.084 1.037 0 1.48 0 2.073.083 2.518 0 1.778 0 4.444.083.592.083 6.665-.166 7.405-.166h-.444c3.11 0 5.036.249 7.998.249 8.295.083 17.33 0 25.032 0 .148-.083-1.63 0-1.778-.083 4.444.083 9.035.083 13.627.166.888 0 1.777.083 2.221.083 1.481 0 .89-.083 1.926 0v.083c1.481-.083 2.222.166 3.703.083.148 0 .592-.083 1.185 0 0 .083 1.629 0 1.48.083h.89c.592 0 6.22-.332 6.813-.332h.296c.889 0 1.185-.083.74-.083h1.037-.148 1.037c.148 0 .444.083.148.083.593 0 1.185-.083 1.778 0-1.63-.083-3.703-.166-5.333-.249h2.666c.89.083 2.815.083 4.148.166.296 0 .592-.083 1.184-.083.297.083.741 0 1.482.083h-2.074c.148.083 1.63.083 2.222.083h2.518c-.296.083.74.083 1.185.083.592 0 .888 0 .74-.083.148-.083-2.221-.083-1.48-.166.147.083 1.332 0 1.925 0 0-.083-.445 0 0-.083.74 0 1.333-.083 1.777 0h-.593c.889 0-4.74.332-3.554.332-.296-.083 4.887-.332 4.295-.332-.592 0 .444-.083-.148-.083l-.593.083c-.74 0-1.036-.083-.74-.166 1.185 0-3.555.332-2.518.332h-.444c.444 0 1.629-.083 2.073 0 0-.083.593-.083 1.185-.083h.148c.593 0 1.333 0 .889-.083-3.11 0 2.074-.497-.889-.58 1.185.083-.444.083-1.777.166-.148 0-.74-.083-1.63-.083-.888 0-.444 0-.592.083-.444 0-1.333-.083-1.185-.083-.592.083-1.037-.083-1.777 0-.74 0 0 0-.444.083h-3.259c-.296-.083-1.333-.166-.593-.25 1.482 0-.592.167 1.037.084-.74-.166 1.482 0 1.63-.166-.445-.083-1.481-.083-2.37-.083h.148c-.74 0-2.222.083-3.11 0 .148-.083-.149-.083.444-.083h-1.037c-.148 0-.296 0 0 0h-1.333c-.148-.083-5.628.166-5.332.166-.74 0-.889-.083-1.63 0h1.037c.593 0 1.482 0 2.37-.083 1.63-.083 3.259-.083 2.814-.083-.592-.083-8.59.249-9.034.166-.593 0-1.185 0-1.037.083-.889 0 .296-.083-.445-.166h-.148l-.592-.083c-1.481.083-3.555 0-5.184.083.444-.083.889-.166 1.925-.166h.148c.148 0 .89 0 .89-.083h-3.26c-.296-.083-.296-.083-.148-.083-.592-.166-3.702.083-5.332 0-.444 0 0 0-.74.083-1.778-.083-2.962-.083-4.74-.166-.592.083-.592.083.148.166H56.82c1.185-.166-2.518-.166-1.185-.331-.444 0-1.185-.083-2.073 0-.148 0-.148.082-1.185.082-1.333-.082-1.037 0-2.222-.082-.296-.083.148-.083.148-.083-1.777.083-1.481-.083-3.11-.083-1.037 0-3.11 0-3.11.083-1.334 0-1.334-.083-1.334-.166z" fill="#696763"/></svg>
