<svg preserveAspectRatio="none" viewBox="0 0 77 27" fill="none" xmlns="http://www.w3.org/2000/svg"><path d="M76.12 1.525H1.32v23h74.8v-23z" fill="#578c85"/><path d="M31.13.425h-.88c2.64 0 5.5 0 8.25.1-6.05-.4-13.2-.7-17.93.1-.33-.5-6.16-.7-6.38-.6-1.21.1-2.42.1-3.74.2l2.64-.1-2.53.1c-1.54.1-2.97.1-4.51.2H.22v8.4c0 2.5-.11 5-.11 7.5 0 2.1-.11 5.7-.11 9.6 3.19 0 6.49.1 9.46.1 2.53 0 4.73.1 6.27.1h2.2c-1.21 0-1.21 0-2.42-.1 3.08-.1 5.94-.2 8.58-.3-.44-.1-.55-.1-1.65-.2h1.43c1.21-.2 4.18-.2 5.5-.2-.33.1.77.1 1.76.1l-.33-.1h11c.44 0 .77 0 .99.1l3.08-.1c-.22.1 2.53.1 1.1.2 2.31-.1 4.62-.1 6.82-.2 3.63 0 7.48-.1 11.22-.1 3.96-.1 8.03-.1 11.99-.2v-2V21.325c0-.6-.11-1.3-.11-1.9-.11-1.3-.11-2.6-.11-4.2-.22-2.2-.33-5.4-.55-6.3 0-2.6-.22-3.6-.22-6.2-.11.7-.22-2.5-.33-1.2-.22 1.7 0 1.8-.22 3.2-.11 3.3-.22 6.6-.22 9.9 0 2.9-.11 5.8-.11 8.7H60.72c-5.5 0-11.55.1-16.28.2-1.1 0-1.98-.1-2.97-.1-4.4 0-9.9.1-14.85.1h.22c-2.64 0-4.62-.1-7.15-.1 0 0-.33 0-.55.1-.22-.1-3.96 0-7.81.1-1.87 0-3.85.1-5.39.1h-3.3c.11-2.1.22-4.2.22-6.3.11-2.3.22-4.6.11-6.6-.44-.9-.44-2-.55-2.7.11-.7-.11-.9 0-1.8.33-2.3.11-3.6 0-2.5v-1.4h2.42c.88 0 1.65-.1 2.53-.1.77 0 1.1 0 1.54.1 1.87 0 1.32 0 3.3.1.44.1 4.95-.2 5.5-.2h-.33c2.31 0 3.74.3 5.94.3 6.16.1 12.87 0 18.59 0 .11-.1-1.21 0-1.32-.1 3.3.1 6.71.1 10.12.2.66 0 1.32.1 1.65.1 1.1 0 .66-.1 1.43 0v.1c1.1-.1 1.65.2 2.75.1.11 0 .44-.1.88 0 0 .1 1.21 0 1.1.1h.66c.44 0 4.62-.4 5.06-.4h.22c.66 0 .88-.1.55-.1h.77-.11.77c.11 0 .33.1.11.1.44 0 .88-.1 1.32 0-1.21-.1-2.75-.2-3.96-.3h1.98c.66.1 2.09.1 3.08.2.22 0 .44-.1.88-.1.22.1.55 0 1.1.1h-1.54c.11.1 1.21.1 1.65.1h1.87c-.22.1.55.1.88.1.44 0 .66 0 .55-.1.11-.1-1.65-.1-1.1-.2.11.1.99 0 1.43 0 0-.1-.33 0 0-.1.55 0 .99-.1 1.32 0h-.44c.66 0-3.52.4-2.64.4-.22-.1 3.63-.4 3.19-.4-.44 0 .33-.1-.11-.1l-.44.1c-.55 0-.77-.1-.55-.2.88 0-2.64.4-1.87.4h-.33c.33 0 1.21-.1 1.54 0 0-.1.44-.1.88-.1h.11c.44 0 .99 0 .66-.1-2.31 0 1.54-.6-.66-.7.88.1-.33.1-1.32.2-.11 0-.55-.1-1.21-.1-.66 0-.33 0-.44.1-.33 0-.99-.1-.88-.1-.44.1-.77-.1-1.32 0-.55 0 0 0-.33.1h-2.42c-.22-.1-.99-.2-.44-.3 1.1 0-.44.2.77.1-.55-.2 1.1 0 1.21-.2-.33-.1-1.1-.1-1.76-.1h.11c-.55 0-1.65.1-2.31 0 .11-.1-.11-.1.33-.1h-.77c-.11 0-.22 0 0 0h-.99c-.11-.1-4.18.2-3.96.2-.55 0-.66-.1-1.21 0h.77c.44 0 1.1 0 1.76-.1 1.21-.1 2.42-.1 2.09-.1-.44-.1-6.38.3-6.71.2-.44 0-.88 0-.77.1-.66 0 .22-.1-.33-.2h-.11l-.44-.1c-1.1.1-2.64 0-3.85.1.33-.1.66-.2 1.43-.2h.11c.11 0 .66 0 .66-.1H50.6c-.22-.1-.22-.1-.11-.1-.44-.2-2.75.1-3.96 0-.33 0 0 0-.55.1-1.32-.1-2.2-.1-3.52-.2-.44.1-.44.1.11.2h-.99c.88-.2-1.87-.2-.88-.4-.33 0-.88-.1-1.54 0-.11 0-.11.1-.88.1-.99-.1-.77 0-1.65-.1-.22-.1.11-.1.11-.1-1.32.1-1.1-.1-2.31-.1-.77 0-2.31 0-2.31.1-.99 0-.99-.1-.99-.2z" fill="#578c85"/></svg>