<svg width="100" height="100" viewBox="0 0 100 100" fill="none" xmlns="http://www.w3.org/2000/svg"><path d="M65.013 42.4822V43.4538C65.013 53.4617 57.4309 64.9999 43.5606 64.9999C39.4613 65.0089 35.4468 63.8279 32 61.5992C32.5981 61.6683 33.1998 61.7008 33.8018 61.6964C37.1959 61.7024 40.493 60.56 43.1615 58.4535C41.5895 58.4211 40.0667 57.8971 38.8052 56.9545C37.5437 56.0118 36.6063 54.6975 36.1236 53.1945C36.5902 53.2819 37.0638 53.3266 37.5385 53.3281C38.2084 53.3276 38.8753 53.2377 39.5216 53.0609C37.8165 52.7137 36.2833 51.7853 35.1814 50.433C34.0796 49.0806 33.4769 47.3874 33.4753 45.64V45.5428C34.525 46.127 35.6981 46.4518 36.8975 46.4902C35.3015 45.4173 34.1719 43.7743 33.7384 41.8952C33.3049 40.016 33.6 38.0415 34.5637 36.373C36.4576 38.7119 38.8193 40.6253 41.4961 41.9894C44.1729 43.3535 47.105 44.1379 50.1027 44.2918C49.9736 43.7344 49.9087 43.1638 49.9093 42.5915C49.9067 41.0695 50.3605 39.5819 51.2116 38.3226C52.0626 37.0633 53.2714 36.0905 54.6807 35.5309C56.0899 34.9713 57.6343 34.8508 59.1126 35.1851C60.591 35.5194 61.9349 36.2931 62.9694 37.4053C64.6745 37.0771 66.3107 36.4567 67.8064 35.5714C67.2259 37.3369 66.0213 38.8277 64.4205 39.7616C65.9156 39.5751 67.3747 39.1658 68.7497 38.547C67.7472 40.0716 66.4818 41.4042 65.013 42.4822V42.4822Z" fill="white"/></svg>