<svg xmlns="http://www.w3.org/2000/svg" viewBox="0 0 112.681 27.586" preserveAspectRatio="none"><path d="M100.681.015a14.315 14.315 0 0 0-1.722.073c-1.573.013-3.214.197-4.788.286-1.178.067-2.335.187-3.463.26-.82.053-1.624.13-2.424.18-1.194.066-2.378.118-3.534.18-1.75.095-3.47.19-5.175.24-.938.015-1.879.01-2.83.004-1.37-.008-2.753-.027-4.193-.07-1.151-.032-2.337-.055-3.555-.093a61.5 61.5 0 0 1-3.213-.1 81.739 81.739 0 0 0-5.642-.176c-.859.02-1.713.024-2.54.009C55.811.76 54.092.717 52.24.81a32.42 32.42 0 0 1-1.932.013c-.462-.018-.938-.03-1.425-.034q-2.597.063-5.067.132c-1.423.02-2.821.045-4.174.06q-1.39.015-2.766.05c-1.028.03-2.038.083-3.055.12-.206-.001-.412.006-.612.02a25.181 25.181 0 0 1-2.614.05q-1.108.029-2.198.08c-.853.013-1.72.01-2.584.007l-5.638-.057c-1.04.01-2.056.02-3.076.063-1.021.043 2.896.116 1.871.17-.844.063-1.718.101-2.601.114-1.9.003-3.793.053-5.65.148a64.756 64.756 0 0 1-5.208.034 4.581 4.581 0 0 0-.657.046 7.252 7.252 0 0 1-1.577.119 2.563 2.563 0 0 0-1.179.116.187.187 0 0 0-.05.04 2.014 2.014 0 0 0-.494.782 4.472 4.472 0 0 1-.418 2.067A12.505 12.505 0 0 0 .33 6.466l-.04.087 1.481.59-1.74.116a.699.699 0 0 1-.02.143q-.007.25-.011.495l3.294.87-2.94-.087.05.267c.059.295.537.594.543.876a4.771 4.771 0 0 1-.395 1.689 1.416 1.416 0 0 0 .575 1.746 2.818 2.818 0 0 1 .647.535 7.38 7.38 0 0 1 .775 1.837 14.174 14.174 0 0 1 .114 2.546c-.006.207-.053.414-.047.622a5.496 5.496 0 0 0 .047 1.042c.035.26.332.524.332.784a2.88 2.88 0 0 1-.712 2.006 2.614 2.614 0 0 0-.635 1.015c-.19.785-.389 1.58-.592 2.394-.104.417.622.616 2.18.686.238.011.46.04.692.053a15.607 15.607 0 0 0 2.642.028c.68-.096 1.392-.168 2.121-.214 1.29-.044 2.588-.038 3.853-.04a14.777 14.777 0 0 1 1.826.188q2.723.334 5.574.58c1.567.1-1.819.17-.154.203 1.39.027 2.801.058 4.214.063.78-.006 1.555-.026 2.317-.062.64-.036 1.292-.062 1.952-.078 1.11-.006 2.226.008 3.338.043q1.78.07 3.593.076c1.206.005 2.421-.013 3.63-.05 2.207-.079 4.488-.053 6.743-.055 1.76.01 3.514-.05 5.192-.176.87-.085 1.797-.133 2.738-.14 2.507.022 5.02.07 7.52.143 1.82.052 3.632.152 5.44.249a51.76 51.76 0 0 0 5.634-.105 69.449 69.449 0 0 1 2.066-.11c1.687-.05 3.384-.079 5.071-.124a44.894 44.894 0 0 0 1.871-.11c1.23-.088 2.45-.185 3.679-.27a4.326 4.326 0 0 1 .599.02c1.997.165 3.968.359 5.986.488 1.677.098 3.383.165 5.108.195 1.055.013 2.119.003 3.18-.031q2.395-.066 4.8-.169c.446-.044.883-.095 1.306-.153 1.232-.1 2.464-.202 3.712-.282 1.77-.113-6.434-.196-4.658-.303a10.16 10.16 0 0 0 3.633-.62 2.04 2.04 0 0 1 .561-.067.5.5 0 0 1 .283.106 1.882 1.882 0 0 1 .165.356 1.865 1.865 0 0 0 1.172-.111 1.37 1.37 0 0 0 .536-.385c.077-.165.152-.737.203-.904a4.23 4.23 0 0 1-.27-2.243l-2.441.01c.814-.005 1.625-.937 2.442-.278 1.613-.656-.025-2.426 1.576-3.069a7.92 7.92 0 0 1-1.919-2.114 7.02 7.02 0 0 1-.908-2.453 10.55 10.55 0 0 1-.093-2.713 18.647 18.647 0 0 1 .469-2.79c.221-.921.495-1.82.781-2.672s.587-1.657.864-2.402a.798.798 0 0 0 .198-.234c-1.025-1.11.484-2.281-.952-3.016-.228-.011-.453-.02-.678-.027-1.841-.062-3.827-.064-5.836-.147z" fill="#e2c675"/><path d="M103.735 20.836a.797.797 0 0 1-.466-.085c-.179-.15.177-.32.47-.383a40.118 40.118 0 0 1 5.79-.789c.301-.019.609-.036.915-.057.404-1.064-.074-2.375-.503-3.496-1.77-4.622-.748-9.434.28-14.132-5.493-.086-.99-.172-6.486-.215-2.002.357-4.223.518-5.757 1.33a4.341 4.341 0 0 1-.994.462 4.748 4.748 0 0 1-1.44.054l-2.32-.15C86.82 7.76 78.558 11.192 70.442 14.53a16.727 16.727 0 0 1-4.29 1.31 20.754 20.754 0 0 1-5.341-.243c-17.082-2.285-29.096-4.742-46.034-7.368-4.1-.636-8.226-1.283-12.388-1.763.042.434.09.867.126 1.301q2.235-.051 4.473-.026a2.94 2.94 0 0 1-1.698 1.731 16.446 16.446 0 0 0-2.094.928c-.173.118-.319.25-.487.37a85.219 85.219 0 0 1-.44 13.532 1.502 1.502 0 0 0 .583 1.653 4.835 4.835 0 0 0 1.857.49 73.888 73.888 0 0 0 9.284.463 169.85 169.85 0 0 1 2.817-2.011 1.092 1.092 0 0 1 .464-.215 1.149 1.149 0 0 1 .935.35 4.038 4.038 0 0 0 2.409 1.533c.306.036-4.281.083-4.18.226 7.76-.141 15.526-.138 23.29-.13l28.345.026 5.549.006a6.307 6.307 0 0 0-1.054-.976c-.525-.389-1.178-.8-1.11-1.295l3.07.961a17.09 17.09 0 0 0 1.783.487c.438.088.893.145 1.317.254a5.373 5.373 0 0 1 1.381.574l2.181.002c13.148.012 16.3.025 29.434.377a13.218 13.218 0 0 0 .473-5.851l-2.101-.316.036-.018c-1.764-.056-3.53-.078-5.296-.055z" fill="#684c1a"/><path d="M5.289 9.471a2.94 2.94 0 0 0 1.698-1.73q-2.237-.027-4.473.025c.082 1 .634 1.632.681 2.633.168-.12-.173.118 0 0a16.446 16.446 0 0 1 2.094-.928zM20.617 26.564a4.038 4.038 0 0 1-2.409-1.534 1.149 1.149 0 0 0-.935-.35 1.092 1.092 0 0 0-.464.215c-.953.664-1.388.974-2.317 1.649 2.148-.006 3.8.304 5.942.261.334-.007-4.332-.009-3.997-.015-.101-.143 4.486-.19 4.18-.226zM76.31 25.87a17.09 17.09 0 0 1-1.783-.488l-3.07-.961c-.068.494.585.906 1.11 1.295a3.078 3.078 0 0 1 .76.63c1.796.002 3.886.349 5.681.35a5.373 5.373 0 0 0-1.38-.573c-.424-.109-.88-.166-1.318-.254zM110.444 19.523c-.306.02-.614.037-.916.056a40.118 40.118 0 0 0-5.788.789c-.294.062-.65.233-.47.383a.797.797 0 0 0 .465.085c1.766-.023 3.532-.001 5.296.055a2.493 2.493 0 0 0 1.413-1.368zM95.585 1.654a44.027 44.027 0 0 1-2.36 1.722l2.32.149a4.748 4.748 0 0 0 1.439-.054 4.341 4.341 0 0 0 .994-.462c1.534-.812 3.755-.973 5.757-1.33q-4.076-.031-8.15-.025z" fill="#c08329"/><path d="M60.81 15.596a20.754 20.754 0 0 0 5.342.242 16.727 16.727 0 0 0 4.289-1.309c8.116-3.338 16.379-6.77 22.784-11.153l-2.25-.145c-3.476-.223-6.952-.447-10.409-.752a244.92 244.92 0 0 1-4.43-.436c-2.595.106-5.197.22-7.788.103-2.719-.124-5.391-.501-8.111-.611-3.493-.142-6.987.158-10.478.313q-1.15.051-2.302.082l-.015.011c-.51.44-.202 1.104-.804 1.503a2.617 2.617 0 0 1-2.175.02 3.382 3.382 0 0 1-1.33-1.145l-.259-.329c-2.55.003-5.103-.038-7.656-.09-.098.046-.198.09-.297.133l-2.85 1.22a4.365 4.365 0 0 1 1.002-1.396 111.972 111.972 0 0 0-15.774.313c-3.591.311-7.35.813-10.767.095-1.528-.321-3.507-.814-4.528-.075l-.091.271c.193 1.333.344 2.668.475 4.004 4.162.48 8.288 1.127 12.388 1.763 16.938 2.626 28.952 5.083 46.034 7.368z" fill="#87601a"/><path d="M43.105 2.214c.01 0 .019.059.028.07a3.414 3.414 0 0 0 1.33 1.163 2.614 2.614 0 0 0 2.175-.046c.46-.305.39-1.187.56-1.187zM33.101 2.214h-.028c-.449 0-.792.726-1.003 1.218.798-.341 1.595-.594 2.393-.936a13.427 13.427 0 0 0-1.362-.282zM76.725 2.018l-.59.025c1.474.156 2.95.306 4.431.436 3.457.305 6.933.529 10.408.752l2.251.145a44.06 44.06 0 0 0 2.36-1.722c-6.293.014-12.581.113-18.86.364z" fill="#c08329"/></svg>