<svg xmlns="http://www.w3.org/2000/svg" preserveAspectRatio="none" viewBox="0 0 112.681 27.834"><path d="M100.681.263a14.315 14.315 0 0 0-1.722.072c-1.573.013-3.214.197-4.788.287-1.178.067-2.335.186-3.463.26-.82.053-1.624.13-2.424.18-1.194.065-2.378.118-3.534.18-1.75.095-3.47.19-5.175.24-.938.014-1.879.01-2.83.004-1.37-.009-2.753-.027-4.193-.07-1.151-.033-2.337-.056-3.555-.093a61.477 61.477 0 0 1-3.213-.101 81.739 81.739 0 0 0-5.642-.176c-.859.021-1.713.024-2.54.01-1.79-.049-3.509-.092-5.362.001a32.42 32.42 0 0 1-1.932.014c-.462-.019-.938-.03-1.425-.034q-2.597.063-5.067.131c-1.423.02-2.821.045-4.174.06q-1.39.016-2.766.051c-1.028.03-2.038.083-3.055.119-.206 0-.412.006-.612.02a25.181 25.181 0 0 1-2.614.05q-1.108.03-2.198.08c-.853.014-1.72.01-2.584.008l-5.638-.058c-1.04.011-2.056.021-3.076.064-1.021.043 2.896.115 1.871.17-.844.063-1.718.1-2.601.113-1.9.004-3.793.053-5.65.148a64.756 64.756 0 0 1-5.208.035 4.581 4.581 0 0 0-.657.046 7.252 7.252 0 0 1-1.577.118 2.563 2.563 0 0 0-1.179.117.187.187 0 0 0-.05.04 2.014 2.014 0 0 0-.494.781 4.472 4.472 0 0 1-.418 2.067A12.505 12.505 0 0 0 .33 6.714L.29 6.8l1.481.591-1.74.115a.699.699 0 0 1-.02.143Q.003 7.9 0 8.145l3.294.869-2.94-.086.05.267c.059.294.537.594.543.876a4.771 4.771 0 0 1-.395 1.688 1.416 1.416 0 0 0 .575 1.746 2.818 2.818 0 0 1 .647.535 7.38 7.38 0 0 1 .775 1.837 14.174 14.174 0 0 1 .114 2.547c-.006.207-.053.414-.047.621a5.496 5.496 0 0 0 .047 1.042c.035.26.332.524.332.785a2.88 2.88 0 0 1-.712 2.006 2.614 2.614 0 0 0-.635 1.015c-.19.785-.388 1.58-.592 2.394-.104.416.622.615 2.18.685.238.012.46.041.692.054a15.607 15.607 0 0 0 2.642.027c.68-.096 1.392-.167 2.121-.213 1.29-.045 2.588-.039 3.853-.04a14.777 14.777 0 0 1 1.826.188q2.723.333 5.575.579c1.566.1-1.82.17-.155.203 1.39.028 2.801.058 4.214.064.78-.006 1.555-.027 2.317-.062.64-.036 1.292-.062 1.952-.078 1.11-.007 2.226.008 3.338.043q1.78.069 3.593.076c1.206.004 2.421-.014 3.63-.051 2.207-.078 4.488-.052 6.743-.055 1.76.01 3.514-.05 5.192-.175.87-.086 1.797-.133 2.738-.14 2.507.022 5.02.07 7.52.142 1.82.053 3.632.152 5.44.25a51.76 51.76 0 0 0 5.634-.105 69.449 69.449 0 0 1 2.066-.11c1.687-.05 3.384-.08 5.071-.124a44.894 44.894 0 0 0 1.871-.111c1.23-.087 2.45-.184 3.679-.27a4.326 4.326 0 0 1 .599.021c1.997.164 3.968.358 5.986.488 1.677.097 3.383.164 5.108.194 1.056.013 2.119.003 3.18-.03q2.395-.066 4.8-.17c.447-.043.883-.094 1.306-.152 1.232-.1 2.464-.203 3.712-.282 1.77-.114-6.434-.197-4.658-.304a10.16 10.16 0 0 0 3.633-.619 2.04 2.04 0 0 1 .561-.067.5.5 0 0 1 .283.106 1.882 1.882 0 0 1 .165.355 1.865 1.865 0 0 0 1.172-.11 1.37 1.37 0 0 0 .536-.385c.077-.165.152-.737.203-.904a4.23 4.23 0 0 1-.27-2.243l-2.441.01c.814-.006 1.625-.938 2.442-.278 1.613-.656-.025-2.426 1.576-3.069a7.92 7.92 0 0 1-1.919-2.114 7.02 7.02 0 0 1-.908-2.453 10.55 10.55 0 0 1-.093-2.714 18.647 18.647 0 0 1 .469-2.79c.221-.92.495-1.82.781-2.671s.587-1.657.864-2.403a.798.798 0 0 0 .198-.234c-1.025-1.109.484-2.281-.952-3.015-.228-.012-.453-.02-.678-.028-1.841-.061-3.827-.064-5.836-.147z" fill="#e2c675"/><path d="M103.735 21.083a.797.797 0 0 1-.466-.084c-.179-.15.177-.321.47-.384a40.118 40.118 0 0 1 5.79-.788c.301-.02.609-.037.915-.057.404-1.064-.074-2.375-.503-3.497-1.77-4.621-.748-9.433.28-14.131-5.493-.087-.99-.173-6.486-.215-2.002.357-4.223.518-5.757 1.33a4.341 4.341 0 0 1-.994.462 4.748 4.748 0 0 1-1.44.053l-2.319-.149c-6.405 4.384-14.668 7.815-22.784 11.154a16.727 16.727 0 0 1-4.29 1.309 20.754 20.754 0 0 1-5.341-.242c-17.082-2.285-29.096-4.742-46.034-7.369-4.1-.635-8.226-1.282-12.388-1.762.042.433.09.867.126 1.3q2.235-.05 4.473-.025a2.94 2.94 0 0 1-1.698 1.73 16.446 16.446 0 0 0-2.094.929c-.173.118-.319.25-.487.37a85.219 85.219 0 0 1-.44 13.531 1.502 1.502 0 0 0 .583 1.654 4.835 4.835 0 0 0 1.857.49 73.888 73.888 0 0 0 9.284.462 169.85 169.85 0 0 1 2.817-2.011 1.092 1.092 0 0 1 .464-.215 1.149 1.149 0 0 1 .935.35 4.038 4.038 0 0 0 2.409 1.533c.306.036-4.281.084-4.18.227 7.76-.142 15.526-.138 23.29-.131l28.345.027 5.55.005a6.307 6.307 0 0 0-1.055-.976c-.525-.388-1.178-.8-1.11-1.295l3.07.962a17.09 17.09 0 0 0 1.783.487c.438.087.894.145 1.317.253a5.373 5.373 0 0 1 1.381.574l2.181.002c13.148.013 16.3.025 29.434.377a13.218 13.218 0 0 0 .473-5.851l-2.101-.315.036-.019c-1.764-.055-3.53-.077-5.296-.055z" fill="#684c1a"/><path d="M5.289 9.719a2.94 2.94 0 0 0 1.698-1.731q-2.237-.027-4.473.026c.082 1 .634 1.632.681 2.633.168-.12-.173.118 0 0a16.446 16.446 0 0 1 2.094-.928zM20.617 26.811a4.038 4.038 0 0 1-2.409-1.533 1.149 1.149 0 0 0-.935-.35 1.092 1.092 0 0 0-.464.215c-.953.664-1.388.973-2.317 1.648 2.148-.005 3.8.304 5.942.262.334-.007-4.332-.01-3.997-.015-.101-.143 4.486-.19 4.18-.227zM76.31 26.117a17.09 17.09 0 0 1-1.783-.488l-3.07-.96c-.068.494.585.905 1.11 1.294a3.078 3.078 0 0 1 .76.631c1.796.002 3.886.349 5.681.35a5.373 5.373 0 0 0-1.38-.574c-.424-.108-.88-.166-1.318-.253zM110.444 19.77l-.916.057a40.118 40.118 0 0 0-5.788.788c-.294.063-.65.233-.47.384a.797.797 0 0 0 .465.084c1.766-.022 3.532 0 5.296.055a2.493 2.493 0 0 0 1.413-1.368zM95.585 1.902a44.027 44.027 0 0 1-2.36 1.721l2.32.15a4.748 4.748 0 0 0 1.439-.054 4.341 4.341 0 0 0 .994-.462c1.534-.813 3.755-.973 5.757-1.33q-4.076-.032-8.15-.025z" fill="#c08329"/><path d="M60.81 15.844a20.754 20.754 0 0 0 5.342.242 16.727 16.727 0 0 0 4.289-1.31c8.116-3.338 16.379-6.77 22.784-11.153l-2.25-.145c-3.476-.223-6.952-.446-10.409-.751a244.92 244.92 0 0 1-4.43-.437c-2.595.107-5.197.22-7.788.103-2.719-.123-5.391-.5-8.111-.61-3.493-.143-6.987.158-10.478.313q-1.15.05-2.302.081l-.015.012c-.51.44-.202 1.104-.804 1.503a2.617 2.617 0 0 1-2.175.02 3.382 3.382 0 0 1-1.33-1.145l-.259-.329c-2.55.003-5.103-.039-7.656-.09-.098.046-.198.09-.297.132l-2.85 1.221a4.365 4.365 0 0 1 1.002-1.396 111.972 111.972 0 0 0-15.774.312c-3.591.312-7.35.814-10.767.096-1.528-.322-3.507-.814-4.528-.075l-.091.27c.193 1.334.344 2.669.475 4.005 4.162.48 8.288 1.127 12.388 1.762 16.938 2.627 28.952 5.084 46.034 7.369z" fill="#87601a"/><path d="M43.105 2.462c.01 0 .019.058.028.07a3.414 3.414 0 0 0 1.33 1.163 2.614 2.614 0 0 0 2.175-.047c.46-.305.39-1.186.56-1.186zM33.101 2.462h-.028c-.449 0-.792.726-1.003 1.218.798-.342 1.595-.595 2.393-.936a13.427 13.427 0 0 0-1.362-.282zM76.725 2.266l-.59.024c1.474.157 2.95.306 4.431.437 3.457.305 6.933.528 10.408.751l2.251.145a44.06 44.06 0 0 0 2.36-1.721c-6.293.013-12.581.112-18.86.364z" fill="#c08329"/><path d="M112.681 19.377a7.92 7.92 0 0 1-1.919-2.114 7.02 7.02 0 0 1-.908-2.453 10.552 10.552 0 0 1-.093-2.713 18.646 18.646 0 0 1 .469-2.79c.221-.921.495-1.82.781-2.672s.587-1.657.864-2.402a.8.8 0 0 0 .198-.234c-1.025-1.11.484-2.282-.952-3.016-.228-.011-.454-.02-.678-.028-1.841-.06-3.827-.064-5.837-.146l-3.925-.794a14.325 14.325 0 0 0-1.722.073c-1.573.013-3.214.197-4.788.286-1.178.067-2.335.187-3.463.26-.82.053-1.624.13-2.424.18-1.194.066-2.378.118-3.534.18-1.75.095-3.47.19-5.175.24-.938.015-1.879.01-2.83.004-1.37-.008-2.753-.027-4.193-.07-1.151-.032-2.337-.055-3.555-.093a61.392 61.392 0 0 1-3.213-.101 81.734 81.734 0 0 0-5.642-.175c-.859.02-1.713.024-2.54.009-1.79-.048-3.509-.091-5.362.001-.669.024-1.32.03-1.932.014-.462-.018-.938-.03-1.425-.034q-2.597.063-5.067.132c-1.423.02-2.821.045-4.174.06q-1.39.015-2.766.05c-1.028.03-2.038.083-3.055.12-.206-.001-.412.006-.612.02a25.215 25.215 0 0 1-2.614.05q-1.108.029-2.198.08c-.853.013-1.72.01-2.584.007l-5.638-.057c-1.04.01-2.056.02-3.076.063-1.021.043 2.896.116 1.871.17-.844.063-1.718.101-2.601.114-1.9.003-3.793.053-5.65.148a64.667 64.667 0 0 1-5.208.034 4.585 4.585 0 0 0-.657.046 9.445 9.445 0 0 0-.39.051 4.465 4.465 0 0 0-2.04.094 1.091 1.091 0 0 0-.326.09.188.188 0 0 0-.05.04 2.014 2.014 0 0 0-.494.782 4.473 4.473 0 0 1-.418 2.067A12.504 12.504 0 0 0 .33 6.466l-.04.087 1.481.59-1.74.116a.699.699 0 0 1-.02.143q-.007.25-.011.495l2.702.713c.015.047.032.094.049.14L.354 8.68l.05.267c.059.295.537.594.543.876a4.773 4.773 0 0 1-.395 1.689 1.416 1.416 0 0 0 .575 1.746 2.817 2.817 0 0 1 .647.535 7.382 7.382 0 0 1 .775 1.837 14.173 14.173 0 0 1 .114 2.546c-.006.207-.053.414-.047.622a8.004 8.004 0 0 0 .03.866q-.078 1.363-.2 2.726c-.055.08-.1.16-.163.24a2.616 2.616 0 0 0-.635 1.015c-.19.785-.389 1.581-.592 2.394-.104.416.622.616 2.18.686.238.011.46.04.692.053a15.61 15.61 0 0 0 2.642.027c.307-.043.64-.062.958-.096 2.138.153 4.298.204 6.464.198.084-.062.172-.122.256-.183.04.005.08.012.122.016q2.723.333 5.574.58c1.567.1-1.819.17-.154.203 1.39.027 2.801.058 4.214.063.78-.006 1.555-.026 2.316-.062.641-.036 1.293-.062 1.953-.078 1.11-.006 2.226.008 3.338.043q1.78.07 3.593.076c1.206.005 2.421-.013 3.63-.05 2.207-.079 4.488-.053 6.743-.055 1.76.01 3.514-.05 5.192-.176.87-.085 1.797-.133 2.738-.14 2.507.022 5.02.07 7.52.143 1.82.052 3.632.151 5.44.249a51.795 51.795 0 0 0 5.634-.105 69.173 69.173 0 0 1 2.066-.11c1.687-.05 3.384-.08 5.071-.124a44.975 44.975 0 0 0 1.871-.11c1.23-.088 2.45-.185 3.679-.27a4.312 4.312 0 0 1 .599.02c1.997.165 3.968.359 5.986.488 1.677.098 3.383.165 5.108.195 1.055.013 2.119.003 3.18-.031q2.394-.066 4.8-.169c.446-.044.883-.095 1.306-.153.711-.058 1.43-.108 2.144-.163l2.712.072c.1-.32.168-.64.242-.962a1.09 1.09 0 0 0 .305-.253c.078-.165.153-.737.204-.904a1.783 1.783 0 0 1-.213-.59 13.04 13.04 0 0 0 .039-1.969c1.438-.689-.084-2.392 1.481-3.02z" opacity=".5"/></svg>