<svg xmlns="http://www.w3.org/2000/svg" preserveAspectRatio="none" viewBox="0 0 112.68 27.59"><defs><style>.cls-3{fill:#ad4801}</style></defs><path d="M100.68 0A12.31 12.31 0 0 0 99 .09c-1.57 0-3.22.19-4.79.28-1.21.07-2.37.19-3.5.26l-2.43.18-3.53.19c-1.75.1-3.47.19-5.17.24h-2.83c-1.37 0-2.76 0-4.2-.07L69 1.08c-1.06 0-2.15 0-3.22-.11C64 .85 62.08.79 60.14.8H57.6c-1.79-.05-3.51-.09-5.36 0h-3.36l-5.06.12-4.18.08h-2.76c-1 0-2 .08-3.06.12h-.61a25.15 25.15 0 0 1-2.61.05l-2.2.08h-2.59l-5.64-.06c-1 0-2.05 0-3.07.06s2.9.12 1.87.17c-.84.07-1.72.11-2.6.12-1.9 0-3.79 0-5.65.15s-3.48.09-5.21 0a4.54 4.54 0 0 0-.66.05 7 7 0 0 1-1.57.11 2.62 2.62 0 0 0-1.18.12h-.05a2.14 2.14 0 0 0-.5.78A4.49 4.49 0 0 1 1.14 5a11.77 11.77 0 0 0-.81 1.47v.08l1.48.59L0 7.26a.34.34 0 0 1 0 .14v.5l3.29.87-2.94-.09A2.56 2.56 0 0 1 .4 9c.06.29.54.59.55.87a4.8 4.8 0 0 1-.4 1.69c-.27.58-.09 1.17.58 1.75a2.54 2.54 0 0 1 .64.53 7.06 7.06 0 0 1 .78 1.84 13.65 13.65 0 0 1 .11 2.55c0 .2-.05.41 0 .62a5.2 5.2 0 0 0 0 1c0 .26.33.52.33.78a2.86 2.86 0 0 1-.71 2 2.56 2.56 0 0 0-.63 1c-.19.78-.39 1.58-.59 2.39-.11.42.62.61 2.18.68l.69.06a16.64 16.64 0 0 0 2.64 0c.68-.1 1.39-.17 2.12-.22h3.85a15.31 15.31 0 0 1 1.83.19c1.82.22 3.67.42 5.57.58 1.57.1-1.81.17-.15.2 1.39 0 2.8.06 4.21.07.78 0 1.56 0 2.32-.07s1.29-.06 1.95-.07h3.34c1.11 0 2.39.07 3.59.08s2.43 0 3.63-.06c2.21-.07 4.49-.05 6.75-.05 1.76 0 3.51-.05 5.19-.18.87-.08 1.8-.13 2.74-.14 2.5 0 5 .07 7.52.15 1.82.05 3.63.15 5.44.25a52.38 52.38 0 0 0 5.63-.11 68.1 68.1 0 0 1 2.07-.11c1.68-.05 3.38-.08 5.07-.12.63 0 1.26-.06 1.87-.11 1.23-.09 2.45-.19 3.68-.27a4 4 0 0 1 .6 0c2 .16 4 .36 6 .49 1.68.09 3.39.16 5.11.19h3.18c1.6 0 3.2-.1 4.8-.17.45 0 .88-.09 1.31-.15 1.23-.1 2.46-.21 3.71-.28 1.77-.12-6.44-.2-4.66-.31a9.9 9.9 0 0 0 3.63-.62 2 2 0 0 1 .57-.06.45.45 0 0 1 .28.1 1.89 1.89 0 0 1 .16.36 1.89 1.89 0 0 0 1.18-.11 1.61 1.61 0 0 0 .53-.39c.08-.16.15-.74.2-.9a4.31 4.31 0 0 1-.27-2.25h-2.44c.82 0 1.63-.93 2.44-.27 1.62-.66 0-2.43 1.58-3.07a8.23 8.23 0 0 1-1.92-2.12 7.19 7.19 0 0 1-.91-2.45 10.61 10.61 0 0 1-.09-2.71 19.12 19.12 0 0 1 .47-2.79c.22-.92.49-1.82.78-2.67s.59-1.66.87-2.41a1 1 0 0 0 .19-.23c-1-1.11.49-2.28-.95-3h-.68c-1.84-.07-3.82-.07-5.83-.15z" fill="#de6200"/><path d="M103.74 20.84a.84.84 0 0 1-.47-.09c-.18-.15.18-.32.47-.38a39 39 0 0 1 5.79-.79l.91-.06c.41-1.06-.07-2.37-.5-3.49-1.77-4.63-.75-9.44.28-14.14-5.49-.08-1-.17-6.49-.21-2 .32-4.22.52-5.73 1.32a4.36 4.36 0 0 1-1 .46 4.59 4.59 0 0 1-1.44 0l-2.32-.14c-6.4 4.38-14.66 7.81-22.78 11.15a16.79 16.79 0 0 1-4.29 1.31 21.27 21.27 0 0 1-5.34-.24c-17.08-2.29-29.1-4.75-46-7.37C10.68 7.59 6.55 7 2.39 6.47c0 .43.09.86.12 1.3h4.48a3 3 0 0 1-1.7 1.73 16.06 16.06 0 0 0-2.09.93c-.18.12-.32.25-.49.37a86.17 86.17 0 0 1-.44 13.5 1.48 1.48 0 0 0 .58 1.7 4.67 4.67 0 0 0 1.86.49 73.3 73.3 0 0 0 9.28.47q1.39-1 2.82-2a1.1 1.1 0 0 1 .46-.22 1.15 1.15 0 0 1 .94.35 4 4 0 0 0 2.41 1.53c.3 0-4.28.09-4.18.23 7.76-.14 15.52-.14 23.29-.13h33.89a6.16 6.16 0 0 0-1.05-1c-.53-.39-1.18-.8-1.11-1.3l3.07 1a16.61 16.61 0 0 0 1.78.49c.44.09.89.14 1.32.25a5.56 5.56 0 0 1 1.37.54h2.18c13.15 0 16.3 0 29.43.38a13.27 13.27 0 0 0 .48-5.86l-2.09-.31a91.9 91.9 0 0 0-5.26-.07z" fill="#753300"/><path class="cls-3" d="M5.29 9.47A3 3 0 0 0 7 7.74H2.52c.09 1 .64 1.63.69 2.63.16-.12-.18.12 0 0a16.06 16.06 0 0 1 2.08-.9zm15.33 17.09A4 4 0 0 1 18.21 25a1.15 1.15 0 0 0-.94-.35 1.1 1.1 0 0 0-.46.22c-.95.66-1.39 1-2.32 1.64 2.15 0 3.8.31 5.94.27h-4c-.09-.13 4.49-.18 4.19-.22zm55.69-.69a16.61 16.61 0 0 1-1.78-.49l-3.07-1c-.07.5.58.91 1.11 1.3a3 3 0 0 1 .76.63c1.79 0 3.88.35 5.68.35a5.56 5.56 0 0 0-1.38-.58c-.43-.08-.88-.08-1.32-.21zm34.13-6.35l-.91.06a39 39 0 0 0-5.79.79c-.29.06-.65.23-.47.38a.84.84 0 0 0 .47.09c1.76 0 3.53 0 5.29.05a2.46 2.46 0 0 0 1.41-1.37zM95.58 1.65c-.75.6-1.54 1.17-2.36 1.73l2.32.14a4.59 4.59 0 0 0 1.44 0A4.36 4.36 0 0 0 98 3c1.53-.81 3.75-1 5.75-1.33q-4.08-.02-8.17-.02z"/><path d="M60.81 15.6a21.27 21.27 0 0 0 5.34.24 16.79 16.79 0 0 0 4.29-1.31c8.12-3.34 16.38-6.77 22.78-11.15L91 3.23c-3.47-.22-7-.45-10.4-.75-1.49-.13-3-.28-4.43-.44-2.6.11-5.2.22-7.79.11s-5.38-.51-8.14-.62c-3.5-.14-7 .16-10.48.32l-2.3.08c-.51.44-.2 1.11-.8 1.5a2.63 2.63 0 0 1-2.18 0 3.36 3.36 0 0 1-1.33-1.14L42.87 2c-2.55 0-5.1 0-7.65-.09l-.3.13-2.85 1.21a4.29 4.29 0 0 1 1-1.39 110.5 110.5 0 0 0-15.77.31c-3.59.31-7.3.83-10.77.09C5 1.94 3 1.45 2 2.19l-.09.27c.2 1.33.35 2.67.48 4 4.16.54 8.29 1.13 12.39 1.77 16.93 2.62 28.95 5.08 46.03 7.37z" fill="#933e01"/><path class="cls-3" d="M43.1 2.21v.07a3.41 3.41 0 0 0 1.33 1.17 2.62 2.62 0 0 0 2.18-.05c.46-.3.39-1.19.56-1.19zm-10 0c-.45 0-.79.73-1 1.22.8-.34 1.6-.59 2.39-.93a12.06 12.06 0 0 0-1.39-.29z"/><path d="M76.72 2h-.58c1.47.16 2.94.31 4.43.44C84 2.78 87.5 3 91 3.23l2.25.15c.82-.56 1.61-1.13 2.36-1.73-6.32.02-12.61.12-18.89.35z" fill="#ad4801"/></svg>