<svg xmlns="http://www.w3.org/2000/svg" viewBox="0 0 207 46.88" preserveAspectRatio="none"><path d="M206 7.1c-1.66-1.87.79-3.85-1.54-5.09h-1.1c-3-.1-6.2-.11-9.46-.25a70.89 70.89 0 0 1-9.62-.94c-.4 0-.82-.69-1.23-.71L181.8 0c-1.87-.07-3.75.47-5.62.37-2.56-.09-5.09.1-7.64.12s-5.21.33-7.76.48c-1.91.11-3.78.31-5.61.44-1.33.09-2.63.22-3.93.3L145.5 2c-2.84.16-5.63.32-8.39.4h-4.59c-2.22 0-4.46 0-6.8-.12L120 2.17c-1.72 0-3.48-.07-5.21-.17-2.94-.2-6-.3-9.15-.3h-4.12c-2.9-.08-5.69-.15-8.69 0H89.7c-.75 0-1.52-.05-2.31-.06l-8.22.22-6.79.14q-2.25 0-4.48.09c-1.67.05-3.3.14-5 .2h-1a39.25 39.25 0 0 1-4.24.08q-1.8 0-3.56.13h-4.19l-9.14-.1c-1.68 0-3.33 0-5 .11s-3.41.19-5.07.29c-1.31.2-2.7.2-4.16.2-3.08 0-6.15.09-9.16.25-2.78.14-5.64.16-8.44.06a7.15 7.15 0 0 0-1.07.08 11.31 11.31 0 0 1-2.56.2 4 4 0 0 0-1.91.2l-.08.07a3.42 3.42 0 0 0-.8 1.32c-.19 1.16.06 2.33-.68 3.49a21.39 21.39 0 0 0-1.31 2.59l-.06.15 2.4 1L0 12.6a1.22 1.22 0 0 1 0 .24v.84l5.34 1.47L.57 15l.08.45c.09.5.87 1 .88 1.48a8.32 8.32 0 0 1-.64 2.85c-.44 1-.15 2 .93 2.94a4.62 4.62 0 0 1 1.05.9 12.72 12.72 0 0 1 1.26 3.1A24.85 24.85 0 0 1 4.32 31c0 .35-.08.7-.08 1a9.64 9.64 0 0 0 .08 1.76c.06.44.54.88.54 1.32a5 5 0 0 1-1.16 3.44 4.44 4.44 0 0 0-1 1.71c-.31 1.32-.63 2.67-1 4-.17.7 1 1 3.53 1.16.39 0 .75.07 1.12.09a24.33 24.33 0 0 0 4.28 0c1.1-.16 2.26-.28 3.44-.36 2.09-.08 4.19-.06 6.25-.07a23.06 23.06 0 0 1 3 .32q4.41.56 9 1 3.81.26 7.86.34c2.25 0 4.54.1 6.83.11 1.26 0 2.52 0 3.76-.1 1-.06 2.1-.11 3.17-.13 1.8 0 3.61 0 5.41.07s3.87.12 5.83.13 3.93 0 5.89-.09c3.58-.13 7.28-.09 10.93-.09 2.85 0 5.7-.08 8.42-.3 1.41-.14 2.91-.22 4.44-.24 4.06 0 8.14.12 12.19.24 2.95.09 5.89.26 8.82.42a80.68 80.68 0 0 0 9.13-.18c1.1-.08 2.22-.14 3.35-.18 2.74-.08 5.49-.13 8.22-.21 1 0 2-.1 3-.19l6-.46a6.74 6.74 0 0 1 1 0c3.24.28 6.43.6 9.7.82 2.72.16 5.48.28 8.28.33 1.71 0 3.44 0 5.15-.05q3.88-.11 7.78-.28c.72-.07 1.43-.16 2.12-.26 2-.17 4-.34 6-.48 2.87-.19 5.78-.33 8.66-.51 2.42-.15 4.69-.36 5.89-1a3.19 3.19 0 0 1 .91-.11.79.79 0 0 1 .46.18 3.23 3.23 0 0 1 .27.6 2.92 2.92 0 0 0 1.9-.19 2.23 2.23 0 0 0 .87-.65c.13-.28.25-1.24.33-1.52-.46-.84-.45-1.63-.44-3.78h-4c1.32 0 2.63-1.58 4-.47 2.61-1.11 0-4.09 2.56-5.18a13.19 13.19 0 0 1-3.11-3.57 12.14 12.14 0 0 1-1.47-4.14 18.5 18.5 0 0 1-.15-4.58A32.61 32.61 0 0 1 203 16c.36-1.55.8-3.07 1.27-4.5s1-2.8 1.4-4.05a1.33 1.33 0 0 0 .33-.35z" fill="#49320f"/><path d="M192.5 35.49a1.25 1.25 0 0 1-.76-.14c-.29-.25.29-.54.76-.65a62.67 62.67 0 0 1 9.38-1.33l1.49-.1c.65-1.79-.12-4-.82-5.9-2.87-7.79-1.21-15.91.46-23.83-8.91-.15-17.82-.29-26.73-.36-3.25.6-6.85.87-9.33 2.24a6.92 6.92 0 0 1-1.61.78 7.41 7.41 0 0 1-2.34.1l-3.76-.3c-10.38 7.39-23.78 13.18-36.94 18.81a26.35 26.35 0 0 1-7 2.21 32.37 32.37 0 0 1-8.66-.41Q65.15 20.88 24 14.23c-6.65-1.07-13.34-2.16-20.08-3 .07.73.15 1.46.2 2.19q3.62-.09 7.25 0a4.88 4.88 0 0 1-2.75 2.92 26.16 26.16 0 0 0-3.39 1.57c-.28.2-.52.42-.79.62a149.46 149.46 0 0 1-.71 22.82 2.59 2.59 0 0 0 .94 2.79 7.6 7.6 0 0 0 3 .83 115.2 115.2 0 0 0 15.05.78c1.51-1.14 3-2.27 4.57-3.39A1.74 1.74 0 0 1 28 42a1.82 1.82 0 0 1 1.52.59c1 1 2 2.35 3.91 2.59.5.06 1.17.14 1.33.38 12.58-.24 25.17-.23 37.76-.22h55a10.4 10.4 0 0 0-1.71-1.65c-.85-.66-1.91-1.35-1.8-2.18l5 1.62a26.86 26.86 0 0 0 2.89.82c.71.15 1.45.24 2.14.43a8.53 8.53 0 0 1 2.24 1h3.54c21.32 0 42.64 0 63.93.64a23.15 23.15 0 0 0 .77-9.87l-3.52-.53h.06c-2.84-.13-5.7-.16-8.56-.13z" fill="#8a621f"/><path d="M8.57 16.33a4.88 4.88 0 0 0 2.75-2.92H4.07c.13 1.69 1 2.75 1.1 4.44a26.16 26.16 0 0 1 3.4-1.52zM33.42 45.15c-1.95-.24-2.86-1.56-3.91-2.59A1.82 1.82 0 0 0 28 42a1.74 1.74 0 0 0-.75.36C25.71 43.46 25 44 23.5 45.12c3.48 0 6.16.51 9.63.44h1.63c-.17-.27-.84-.35-1.34-.41zM131.82 44a26.86 26.86 0 0 1-2.89-.82l-5-1.62c-.11.83.95 1.53 1.8 2.18a5 5 0 0 1 1.27 1.05c2.91 0 6.3.59 9.21.59a8.53 8.53 0 0 0-2.24-1c-.7-.15-1.44-.25-2.15-.38zM203.37 33.28l-1.49.1a62.67 62.67 0 0 0-9.38 1.33c-.48.11-1.05.39-.76.65a1.25 1.25 0 0 0 .76.14c2.86 0 5.73 0 8.58.09a4.13 4.13 0 0 0 2.29-2.31zM163.07 3.15c-1.22 1-2.5 2-3.83 2.9l3.76.25a7.41 7.41 0 0 0 2.33-.09 6.92 6.92 0 0 0 1.61-.78c2.49-1.37 6.09-1.64 9.33-2.24q-6.59-.06-13.2-.04z" fill="#33230a"/><path d="M106.69 26.66a32.37 32.37 0 0 0 8.66.41 26.35 26.35 0 0 0 7-2.21c13.11-5.63 26.51-11.42 36.89-18.86l-3.64-.2c-5.63-.38-11.27-.75-16.87-1.27-2.4-.22-4.79-.47-7.18-.74-4.21.18-8.42.37-12.63.17-4.41-.21-8.74-.84-13.15-1-5.66-.24-11.33.27-17 .53q-1.86.09-3.73.14c-.83.74-.33 1.86-1.3 2.53a4.09 4.09 0 0 1-3.53 0A5.55 5.55 0 0 1 78 4.27l-.42-.55c-4.13 0-8.27-.07-12.41-.15l-.48.22-4.59 2.05a7.36 7.36 0 0 1 1.63-2.36C50.45 3.24 39.18 3 28 4c-5.82.53-11.92 1.37-17.46.16C8.11 3.63 4.9 2.8 3.25 4l-.15.46c.31 2.25.56 4.5.77 6.75 6.75.81 13.44 1.9 20.08 3q41.2 6.67 82.74 12.45z" fill="#8a621f"/><path d="M106.69 26.66a32.37 32.37 0 0 0 8.66.41 26.35 26.35 0 0 0 7-2.21c13.11-5.63 26.51-11.42 36.89-18.86l-3.64-.2c-5.63-.38-11.27-.75-16.87-1.27-2.4-.22-4.79-.47-7.18-.74-4.21.18-8.42.37-12.63.17-4.41-.21-8.74-.84-13.15-1-5.66-.24-11.33.27-17 .53q-1.86.09-3.73.14c-.83.74-.33 1.86-1.3 2.53a4.09 4.09 0 0 1-3.53 0A5.55 5.55 0 0 1 78 4.27l-.42-.55c-4.13 0-8.27-.07-12.41-.15l-.48.22-4.59 2.05a7.36 7.36 0 0 1 1.63-2.36C50.45 3.24 39.18 3 28 4c-5.82.53-11.92 1.37-17.46.16C8.11 3.63 4.9 2.8 3.25 4l-.15.46c.31 2.25.56 4.5.77 6.75 6.75.81 13.44 1.9 20.08 3q41.2 6.67 82.74 12.45z" fill="#fff" opacity=".1"/><path d="M78 3.24v.54A6.07 6.07 0 0 0 80.19 6a4.11 4.11 0 0 0 3.53-.4c.75-.51.63-2.32.91-2.32z" fill="#33230a"/><path d="M132.49 3.76h-1c2.39.26 4.78.52 7.18.74 5.6.51 11.24.89 16.87 1.27l3.65.24c1.32-.94 2.61-1.91 3.83-2.9-10.15.06-20.35.23-30.53.65z" fill="#33230a"/></svg>